<svg xmlns:inkscape="http://www.inkscape.org/namespaces/inkscape" xmlns:sodipodi="http://sodipodi.sourceforge.net/DTD/sodipodi-0.dtd" xmlns:xlink="http://www.w3.org/1999/xlink" xmlns="http://www.w3.org/2000/svg" xmlns:svg="http://www.w3.org/2000/svg" width="963.54999" height="920.03003" viewBox="0 0 963.54999 920.03003" fill="none" version="1.1" id="svg859" sodipodi:docname="Development File.svg" xml:space="preserve" inkscape:version="1.4.2 (f4327f4, 2025-05-13)" inkscape:export-batch-path="map" inkscape:export-batch-name="" inkscape:export-filename="maps.tar" inkscape:export-xdpi="96" inkscape:export-ydpi="96"><sodipodi:namedview id="namedview859" pagecolor="#ffffff" bordercolor="#000000" borderopacity="0.25" inkscape:showpageshadow="2" inkscape:pageopacity="0.0" inkscape:pagecheckerboard="0" inkscape:deskcolor="#d1d1d1" inkscape:zoom="0.5" inkscape:cx="343" inkscape:cy="397" inkscape:window-width="2560" inkscape:window-height="1369" inkscape:window-x="-8" inkscape:window-y="-8" inkscape:window-maximized="1" inkscape:current-layer="layer57" showgrid="false"><inkscape:grid id="grid859" units="px" originx="0" originy="0" spacingx="1" spacingy="1" empcolor="#0099e5" empopacity="0.30196078" color="#0099e5" opacity="0.14901961" empspacing="5" enabled="true" visible="false"/><inkscape:page x="0" y="0" width="963.54999" height="920.03003" id="page1" margin="0" bleed="0" inkscape:export-filename="maps\Page 2.tar" inkscape:export-xdpi="96" inkscape:export-ydpi="96"/><inkscape:page x="-601.04071" y="-594.17072" width="1200" height="1200" id="page2" margin="0 0 0" bleed="0" inkscape:export-filename="map\Page 2.tar" inkscape:export-xdpi="96" inkscape:export-ydpi="96"/></sodipodi:namedview><defs id="defs859"><marker inkscape:isstock="true" style="overflow:visible" id="marker13503" refX="0" refY="0" orient="auto" inkscape:stockid="StopL" viewBox="0 0 1.0666667 9.04" markerWidth="1.0666667" markerHeight="9.04" preserveAspectRatio="xMidYMid"><path style="fill:none;fill-opacity:0.75;fill-rule:evenodd;stroke:#000000;stroke-opacity:1;stroke-width:1.0666666666666667" d="M 0 4.52 L 0 -4.52" id="path13501"/></marker><marker inkscape:isstock="true" style="overflow:visible" id="marker13503-63" refX="0" refY="0" orient="auto" inkscape:stockid="StopL" viewBox="0 0 1.0666667 9.04" markerWidth="1.0666667" markerHeight="9.04" preserveAspectRatio="xMidYMid"><path style="fill:none;fill-opacity:0.75;fill-rule:evenodd;stroke:#000000;stroke-opacity:1;stroke-width:1.0666666666666667" d="M 0 4.52 L 0 -4.52" id="path13501-23"/></marker><marker inkscape:isstock="true" style="overflow:visible" id="marker13503-63-0" refX="0" refY="0" orient="auto" inkscape:stockid="StopL" viewBox="0 0 1.0666667 9.04" markerWidth="1.0666667" markerHeight="9.04" preserveAspectRatio="xMidYMid"><path style="fill:none;fill-opacity:0.75;fill-rule:evenodd;stroke:#000000;stroke-opacity:1;stroke-width:1.0666666666666667" d="M 0 4.52 L 0 -4.52" id="path13501-23-3"/></marker><marker inkscape:isstock="true" style="overflow:visible" id="marker13503-63-1" refX="0" refY="0" orient="auto" inkscape:stockid="StopL" viewBox="0 0 1.0666667 9.04" markerWidth="1.0666667" markerHeight="9.04" preserveAspectRatio="xMidYMid"><path style="fill:none;fill-opacity:0.75;fill-rule:evenodd;stroke:#000000;stroke-opacity:1;stroke-width:1.0666666666666667" d="M 0 4.52 L 0 -4.52" id="path13501-23-4"/></marker><marker inkscape:isstock="true" style="overflow:visible" id="marker13503-63-3" refX="0" refY="0" orient="auto" inkscape:stockid="StopL" viewBox="0 0 1.0666667 9.04" markerWidth="1.0666667" markerHeight="9.04" preserveAspectRatio="xMidYMid"><path style="fill:none;fill-opacity:0.75;fill-rule:evenodd;stroke:#000000;stroke-opacity:1;stroke-width:1.0666666666666667" d="M 0 4.52 L 0 -4.52" id="path13501-23-33"/></marker><marker inkscape:isstock="true" style="overflow:visible" id="marker13503-63-3-3" refX="0" refY="0" orient="auto" inkscape:stockid="StopL" viewBox="0 0 1.0666667 9.04" markerWidth="1.0666667" markerHeight="9.04" preserveAspectRatio="xMidYMid"><path style="fill:none;fill-opacity:0.75;fill-rule:evenodd;stroke:#000000;stroke-opacity:1;stroke-width:1.0666666666666667" d="M 0 4.52 L 0 -4.52" id="path13501-23-33-1"/></marker><marker inkscape:isstock="true" style="overflow:visible" id="marker13503-63-3-3-1" refX="0" refY="0" orient="auto" inkscape:stockid="StopL" viewBox="0 0 1.0666667 9.04" markerWidth="1.0666667" markerHeight="9.04" preserveAspectRatio="xMidYMid"><path style="fill:none;fill-opacity:0.75;fill-rule:evenodd;stroke:#000000;stroke-opacity:1;stroke-width:1.0666666666666667" d="M 0 4.52 L 0 -4.52" id="path13501-23-33-1-4"/></marker><marker inkscape:isstock="true" style="overflow:visible" id="marker13503-63-3-3-1-8" refX="0" refY="0" orient="auto" inkscape:stockid="StopL" viewBox="0 0 1.0666667 9.04" markerWidth="1.0666667" markerHeight="9.04" preserveAspectRatio="xMidYMid"><path style="fill:none;fill-opacity:0.75;fill-rule:evenodd;stroke:#000000;stroke-opacity:1;stroke-width:1.0666666666666667" d="M 0 4.52 L 0 -4.52" id="path13501-23-33-1-4-5"/></marker><marker inkscape:isstock="true" style="overflow:visible" id="marker13503-63-3-3-1-8-5" refX="0" refY="0" orient="auto" inkscape:stockid="StopL" viewBox="0 0 1.0666667 9.04" markerWidth="1.0666667" markerHeight="9.04" preserveAspectRatio="xMidYMid"><path style="fill:none;fill-opacity:0.75;fill-rule:evenodd;stroke:#000000;stroke-opacity:1;stroke-width:1.0666666666666667" d="M 0 4.52 L 0 -4.52" id="path13501-23-33-1-4-5-3"/></marker><marker inkscape:isstock="true" style="overflow:visible" id="marker13503-63-3-3-1-8-5-6" refX="0" refY="0" orient="auto" inkscape:stockid="StopL" viewBox="0 0 1.0666667 9.04" markerWidth="1.0666667" markerHeight="9.04" preserveAspectRatio="xMidYMid"><path style="fill:none;fill-opacity:0.75;fill-rule:evenodd;stroke:#000000;stroke-opacity:1;stroke-width:1.0666666666666667" d="M 0 4.52 L 0 -4.52" id="path13501-23-33-1-4-5-3-8"/></marker><marker inkscape:isstock="true" style="overflow:visible" id="marker13503-63-3-3-1-8-5-6-1" refX="0" refY="0" orient="auto" inkscape:stockid="StopL" viewBox="0 0 1.0666667 9.04" markerWidth="1.0666667" markerHeight="9.04" preserveAspectRatio="xMidYMid"><path style="fill:none;fill-opacity:0.75;fill-rule:evenodd;stroke:#000000;stroke-opacity:1;stroke-width:1.0666666666666667" d="M 0 4.52 L 0 -4.52" id="path13501-23-33-1-4-5-3-8-0"/></marker><marker inkscape:isstock="true" style="overflow:visible" id="marker13503-63-3-3-1-8-5-6-1-9-8" refX="0" refY="0" orient="auto" inkscape:stockid="StopL" viewBox="0 0 1.0666667 9.04" markerWidth="1.0666667" markerHeight="9.04" preserveAspectRatio="xMidYMid"><path style="fill:none;fill-opacity:0.75;fill-rule:evenodd;stroke:#000000;stroke-opacity:1;stroke-width:1.0666666666666667" d="M 0 4.52 L 0 -4.52" id="path13501-23-33-1-4-5-3-8-0-4-0"/></marker><marker inkscape:isstock="true" style="overflow:visible" id="marker13503-6" refX="0" refY="0" orient="auto" inkscape:stockid="StopL" viewBox="0 0 1.0666667 9.04" markerWidth="1.0666667" markerHeight="9.04" preserveAspectRatio="xMidYMid"><path style="fill:none;fill-opacity:0.75;fill-rule:evenodd;stroke:#000000;stroke-opacity:1;stroke-width:1.0666666666666667" d="M 0 4.52 L 0 -4.52" id="path13501-1"/></marker><marker inkscape:isstock="true" style="overflow:visible" id="marker13503-2" refX="0" refY="0" orient="auto" inkscape:stockid="StopL" viewBox="0 0 1.0666667 9.04" markerWidth="1.0666667" markerHeight="9.04" preserveAspectRatio="xMidYMid"><path style="fill:none;fill-opacity:0.75;fill-rule:evenodd;stroke:#000000;stroke-opacity:1;stroke-width:1.0666666666666667" d="M 0 4.52 L 0 -4.52" id="path13501-2"/></marker><marker inkscape:isstock="true" style="overflow:visible" id="marker13503-63-3-3-1-8-5-6-1-9-8-7" refX="0" refY="0" orient="auto" inkscape:stockid="StopL" viewBox="0 0 1.0666667 9.04" markerWidth="1.0666667" markerHeight="9.04" preserveAspectRatio="xMidYMid"><path style="fill:none;fill-opacity:0.75;fill-rule:evenodd;stroke:#000000;stroke-opacity:1;stroke-width:1.0666666666666667" d="M 0 4.52 L 0 -4.52" id="path13501-23-33-1-4-5-3-8-0-4-0-4"/></marker><marker inkscape:isstock="true" style="overflow:visible" id="marker13503-63-3-3-1-8-5-6-1-9-8-7-9" refX="0" refY="0" orient="auto" inkscape:stockid="StopL" viewBox="0 0 1.0666667 9.04" markerWidth="1.0666667" markerHeight="9.04" preserveAspectRatio="xMidYMid"><path style="fill:none;fill-opacity:0.75;fill-rule:evenodd;stroke:#000000;stroke-opacity:1;stroke-width:1.0666666666666667" d="M 0 4.52 L 0 -4.52" id="path13501-23-33-1-4-5-3-8-0-4-0-4-2"/></marker><marker inkscape:isstock="true" style="overflow:visible" id="marker13503-63-3-3-1-8-5-6-1-9-8-7-9-3" refX="0" refY="0" orient="auto" inkscape:stockid="StopL" viewBox="0 0 1.0666667 9.04" markerWidth="1.0666667" markerHeight="9.04" preserveAspectRatio="xMidYMid"><path style="fill:none;fill-opacity:0.75;fill-rule:evenodd;stroke:#000000;stroke-opacity:1;stroke-width:1.0666666666666667" d="M 0 4.52 L 0 -4.52" id="path13501-23-33-1-4-5-3-8-0-4-0-4-2-6"/></marker><marker inkscape:isstock="true" style="overflow:visible" id="marker13503-63-3-3-1-8-5-6-1-9-8-7-9-3-6" refX="0" refY="0" orient="auto" inkscape:stockid="StopL" viewBox="0 0 1.0666667 9.04" markerWidth="1.0666667" markerHeight="9.04" preserveAspectRatio="xMidYMid"><path style="fill:none;fill-opacity:0.75;fill-rule:evenodd;stroke:#000000;stroke-opacity:1;stroke-width:1.0666666666666667" d="M 0 4.52 L 0 -4.52" id="path13501-23-33-1-4-5-3-8-0-4-0-4-2-6-8"/></marker><marker inkscape:isstock="true" style="overflow:visible" id="marker13503-63-3-3-1-8-5-6-1-9-8-7-9-3-6-3" refX="0" refY="0" orient="auto" inkscape:stockid="StopL" viewBox="0 0 1.0666667 9.04" markerWidth="1.0666667" markerHeight="9.04" preserveAspectRatio="xMidYMid"><path style="fill:none;fill-opacity:0.75;fill-rule:evenodd;stroke:#000000;stroke-opacity:1;stroke-width:1.0666666666666667" d="M 0 4.52 L 0 -4.52" id="path13501-23-33-1-4-5-3-8-0-4-0-4-2-6-8-0"/></marker><marker inkscape:isstock="true" style="overflow:visible" id="marker13503-63-3-3-1-8-5-6-1-9-8-7-9-3-6-4" refX="0" refY="0" orient="auto" inkscape:stockid="StopL" viewBox="0 0 1.0666667 9.04" markerWidth="1.0666667" markerHeight="9.04" preserveAspectRatio="xMidYMid"><path style="fill:none;fill-opacity:0.75;fill-rule:evenodd;stroke:#000000;stroke-opacity:1;stroke-width:1.0666666666666667" d="M 0 4.52 L 0 -4.52" id="path13501-23-33-1-4-5-3-8-0-4-0-4-2-6-8-6"/></marker><marker inkscape:collect="always" inkscape:isstock="true" style="overflow:visible" id="StopL" refX="0" refY="0" orient="auto" inkscape:stockid="StopL"><path style="fill:none;fill-opacity:0.75;fill-rule:evenodd;stroke:#000000;stroke-opacity:1;stroke-width:1.0666666666666667" d="M 0 4.52 L 0 -4.52" id="path1042"/></marker><marker inkscape:collect="always" inkscape:stockid="StopL" orient="auto" refY="0" refX="0" id="marker1670" style="overflow:visible" inkscape:isstock="true"><path id="path1668" d="M 0 4.52 L 0 -4.52" style="fill:none;fill-opacity:0.75;fill-rule:evenodd;stroke:#000000;stroke-opacity:1;stroke-width:1.0666666666666667"/></marker><marker inkscape:collect="always" inkscape:isstock="true" style="overflow:visible" id="marker1751" refX="0" refY="0" orient="auto" inkscape:stockid="StopL"><path style="fill:none;fill-opacity:0.75;fill-rule:evenodd;stroke:#000000;stroke-opacity:1;stroke-width:1.0666666666666667" d="M 0 4.52 L 0 -4.52" id="path1749"/></marker><marker inkscape:isstock="true" style="overflow:visible" id="marker1751-2-8" refX="0" refY="0" orient="auto" inkscape:stockid="StopL"><path style="fill:none;fill-opacity:0.75;fill-rule:evenodd;stroke:#000000;stroke-opacity:1;stroke-width:1.0666666666666667" d="M 0 4.52 L 0 -4.52" id="path1749-82-4"/></marker><marker inkscape:collect="always" inkscape:stockid="StopL" orient="auto" refY="0" refX="0" id="marker6518" style="overflow:visible" inkscape:isstock="true"><path id="path6516" d="M 0 4.52 L 0 -4.52" style="fill:none;fill-opacity:0.75;fill-rule:evenodd;stroke:#000000;stroke-opacity:1;stroke-width:1.0666666666666667"/></marker><marker inkscape:isstock="true" style="overflow:visible" id="marker6929-1" refX="0" refY="0" orient="auto" inkscape:stockid="StopL"><path style="fill:none;fill-opacity:0.75;fill-rule:evenodd;stroke:#000000;stroke-opacity:1;stroke-width:1.0666666666666667" d="M 0 4.52 L 0 -4.52" id="path6927-4"/></marker><marker inkscape:stockid="StopL" orient="auto" refY="0" refX="0" id="marker8717-3" style="overflow:visible" inkscape:isstock="true"><path id="path8715-9" d="M 0 4.52 L 0 -4.52" style="fill:none;fill-opacity:0.75;fill-rule:evenodd;stroke:#000000;stroke-opacity:1;stroke-width:1.0666666666666667"/></marker><marker inkscape:collect="always" inkscape:stockid="StopL" orient="auto" refY="0" refX="0" id="marker7760" style="overflow:visible" inkscape:isstock="true"><path id="path7758" d="M 0 4.52 L 0 -4.52" style="fill:none;fill-opacity:0.75;fill-rule:evenodd;stroke:#000000;stroke-opacity:1;stroke-width:1.0666666666666667"/></marker><marker inkscape:collect="always" inkscape:isstock="true" style="overflow:visible" id="marker12421" refX="0" refY="0" orient="auto" inkscape:stockid="StopL"><path style="fill:none;fill-opacity:0.75;fill-rule:evenodd;stroke:#000000;stroke-opacity:1;stroke-width:1.0666666666666667" d="M 0 4.52 L 0 -4.52" id="path12419"/></marker><marker inkscape:collect="always" inkscape:stockid="StopL" orient="auto" refY="0" refX="0" id="marker12664" style="overflow:visible" inkscape:isstock="true"><path id="path12662" d="M 0 4.52 L 0 -4.52" style="fill:none;fill-opacity:0.75;fill-rule:evenodd;stroke:#000000;stroke-opacity:1;stroke-width:1.0666666666666667"/></marker><marker inkscape:isstock="true" style="overflow:visible" id="marker13074-8" refX="0" refY="0" orient="auto" inkscape:stockid="StopL"><path style="fill:none;fill-opacity:0.75;fill-rule:evenodd;stroke:#000000;stroke-opacity:1;stroke-width:1.0666666666666667" d="M 0 4.52 L 0 -4.52" id="path13072-8"/></marker><marker inkscape:collect="always" inkscape:stockid="StopL" orient="auto" refY="0" refX="0" id="marker12282" style="overflow:visible" inkscape:isstock="true"><path id="path12280" d="M 0 4.52 L 0 -4.52" style="fill:none;fill-opacity:0.75;fill-rule:evenodd;stroke:#000000;stroke-opacity:1;stroke-width:1.0666666666666667"/></marker><marker inkscape:isstock="true" style="overflow:visible" id="marker13503-0" refX="0" refY="0" orient="auto" inkscape:stockid="StopL"><path style="fill:none;fill-opacity:0.75;fill-rule:evenodd;stroke:#000000;stroke-opacity:1;stroke-width:1.0666666666666667" d="M 0 4.52 L 0 -4.52" id="path13501-8"/></marker><marker inkscape:collect="always" inkscape:stockid="StopL" orient="auto" refY="0" refX="0" id="marker14714" style="overflow:visible" inkscape:isstock="true"><path id="path14712" d="M 0 4.52 L 0 -4.52" style="fill:none;fill-opacity:0.75;fill-rule:evenodd;stroke:#000000;stroke-opacity:1;stroke-width:1.0666666666666667"/></marker><marker inkscape:collect="always" inkscape:isstock="true" style="overflow:visible" id="marker16016" refX="0" refY="0" orient="auto" inkscape:stockid="StopL"><path style="fill:none;fill-opacity:0.75;fill-rule:evenodd;stroke:#000000;stroke-opacity:1;stroke-width:1.0666666666666667" d="M 0 4.52 L 0 -4.52" id="path16014"/></marker><marker inkscape:collect="always" inkscape:stockid="StopL" orient="auto" refY="0" refX="0" id="marker16513" style="overflow:visible" inkscape:isstock="true"><path id="path16511" d="M 0 4.52 L 0 -4.52" style="fill:none;fill-opacity:0.75;fill-rule:evenodd;stroke:#000000;stroke-opacity:1;stroke-width:1.0666666666666667"/></marker><marker inkscape:isstock="true" style="overflow:visible" id="marker16694-7" refX="0" refY="0" orient="auto" inkscape:stockid="StopL"><path style="fill:none;fill-opacity:0.75;fill-rule:evenodd;stroke:#000000;stroke-opacity:1;stroke-width:1.0666666666666667" d="M 0 4.52 L 0 -4.52" id="path16692-7"/></marker><marker inkscape:isstock="true" style="overflow:visible" id="marker13503-3" refX="0" refY="0" orient="auto" inkscape:stockid="StopL"><path style="fill:none;fill-opacity:0.75;fill-rule:evenodd;stroke:#000000;stroke-opacity:1;stroke-width:1.0666666666666667" d="M 0 4.52 L 0 -4.52" id="path13501-7"/></marker><marker inkscape:isstock="true" style="overflow:visible" id="marker13503-0-4" refX="0" refY="0" orient="auto" inkscape:stockid="StopL"><path style="fill:none;fill-opacity:0.75;fill-rule:evenodd;stroke:#000000;stroke-opacity:1;stroke-width:1.0666666666666667" d="M 0 4.52 L 0 -4.52" id="path13501-2-3"/></marker><marker inkscape:stockid="StopL" orient="auto" refY="0" refX="0" id="marker1765" style="overflow:visible" inkscape:isstock="true" inkscape:collect="always"><path id="path1763" d="M 0 4.52 L 0 -4.52" style="fill:none;fill-opacity:0.75;fill-rule:evenodd;stroke:#000000;stroke-opacity:1;stroke-width:1.0666666666666667"/></marker><marker inkscape:stockid="StopL" orient="auto" refY="0" refX="0" id="marker1961" style="overflow:visible" inkscape:isstock="true" inkscape:collect="always"><path id="path1959" d="M 0 4.52 L 0 -4.52" style="fill:none;fill-opacity:0.75;fill-rule:evenodd;stroke:#000000;stroke-opacity:1;stroke-width:1.0666666666666667"/></marker><marker inkscape:stockid="StopL" orient="auto" refY="0" refX="0" id="marker2157" style="overflow:visible" inkscape:isstock="true" inkscape:collect="always"><path id="path2155" d="M 0 4.52 L 0 -4.52" style="fill:none;fill-opacity:0.75;fill-rule:evenodd;stroke:#000000;stroke-opacity:1;stroke-width:1.0666666666666667"/></marker><marker inkscape:stockid="StopL" orient="auto" refY="0" refX="0" id="marker2365" style="overflow:visible" inkscape:isstock="true"><path id="path2363" d="M 0 4.52 L 0 -4.52" style="fill:none;fill-opacity:0.75;fill-rule:evenodd;stroke:#000000;stroke-opacity:1;stroke-width:1.0666666666666667"/></marker><marker inkscape:stockid="StopL" orient="auto" refY="0" refX="0" id="marker1231" style="overflow:visible" inkscape:isstock="true" inkscape:collect="always"><path id="path1229" d="M 0 4.52 L 0 -4.52" style="fill:none;fill-opacity:0.75;fill-rule:evenodd;stroke:#000000;stroke-opacity:1;stroke-width:1.0666666666666667"/></marker><marker inkscape:stockid="StopL" orient="auto" refY="0" refX="0" id="marker1912" style="overflow:visible" inkscape:isstock="true" inkscape:collect="always"><path id="path1910" d="M 0 4.52 L 0 -4.52" style="fill:none;fill-opacity:0.75;fill-rule:evenodd;stroke:#000000;stroke-opacity:1;stroke-width:1.0666666666666667"/></marker><marker inkscape:stockid="StopL" orient="auto" refY="0" refX="0" id="marker1403" style="overflow:visible" inkscape:isstock="true" inkscape:collect="always"><path id="path1401" d="M 0 4.52 L 0 -4.52" style="fill:none;fill-opacity:0.75;fill-rule:evenodd;stroke:#000000;stroke-opacity:1;stroke-width:1.0666666666666667"/></marker><marker inkscape:stockid="StopL" orient="auto" refY="0" refX="0" id="marker1581" style="overflow:visible" inkscape:isstock="true" inkscape:collect="always"><path id="path1579" d="M 0 4.52 L 0 -4.52" style="fill:none;fill-opacity:0.75;fill-rule:evenodd;stroke:#000000;stroke-opacity:1;stroke-width:1.0666666666666667"/></marker><marker inkscape:stockid="StopL" orient="auto" refY="0" refX="0" id="marker7052" style="overflow:visible" inkscape:isstock="true"><path id="path7050" d="M 0 4.52 L 0 -4.52" style="fill:#ffffff;fill-opacity:1;fill-rule:evenodd;stroke:#000000;stroke-opacity:1;stroke-width:1.0666666666666667"/></marker><marker inkscape:isstock="true" style="overflow:visible" id="StopL-9" refX="0" refY="0" orient="auto" inkscape:stockid="StopL"><path style="fill:none;fill-opacity:0.75;fill-rule:evenodd;stroke:#000000;stroke-opacity:1;stroke-width:1.0666666666666667" d="M 0 4.52 L 0 -4.52" id="path5123"/></marker><marker inkscape:stockid="StopL" orient="auto" refY="0" refX="0" id="marker5332" style="overflow:visible" inkscape:isstock="true"><path id="path5330" d="M 0 4.52 L 0 -4.52" style="fill:none;fill-opacity:0.75;fill-rule:evenodd;stroke:#000000;stroke-opacity:1;stroke-width:1.0666666666666667"/></marker><marker inkscape:collect="always" inkscape:isstock="true" style="overflow:visible" id="marker6916" refX="0" refY="0" orient="auto" inkscape:stockid="StopL"><path style="fill:none;fill-opacity:0.75;fill-rule:evenodd;stroke:#000000;stroke-opacity:1;stroke-width:1.0666666666666667" d="M 0 4.52 L 0 -4.52" id="path6914"/></marker><marker inkscape:stockid="StopL" orient="auto" refY="0" refX="0" id="marker5298" style="overflow:visible" inkscape:isstock="true"><path id="path5296" d="M 0 4.52 L 0 -4.52" style="fill:none;fill-opacity:0.75;fill-rule:evenodd;stroke:#000000;stroke-opacity:1;stroke-width:1.0666666666666667"/></marker><marker inkscape:collect="always" inkscape:isstock="true" style="overflow:visible" id="marker5264" refX="0" refY="0" orient="auto" inkscape:stockid="StopL"><path style="fill:none;fill-opacity:0.75;fill-rule:evenodd;stroke:#000000;stroke-opacity:1;stroke-width:1.0666666666666667" d="M 0 4.52 L 0 -4.52" id="path5262"/></marker><marker inkscape:stockid="StopL" orient="auto" refY="0" refX="0" id="marker7188" style="overflow:visible" inkscape:isstock="true"><path id="path7186" d="M 0 4.52 L 0 -4.52" style="fill:none;fill-opacity:0.75;fill-rule:evenodd;stroke:#000000;stroke-opacity:1;stroke-width:1.0666666666666667"/></marker><marker inkscape:stockid="StopL" orient="auto" refY="0" refX="0" id="marker5372" style="overflow:visible" inkscape:isstock="true"><path id="path5370" d="M 0 4.52 L 0 -4.52" style="fill:none;fill-opacity:0.75;fill-rule:evenodd;stroke:#000000;stroke-opacity:1;stroke-width:1.0666666666666667"/></marker><marker inkscape:collect="always" inkscape:isstock="true" style="overflow:visible" id="marker5614" refX="0" refY="0" orient="auto" inkscape:stockid="StopL"><path style="fill:none;fill-opacity:0.75;fill-rule:evenodd;stroke:#000000;stroke-opacity:1;stroke-width:1.0666666666666667" d="M 0 4.52 L 0 -4.52" id="path5612"/></marker><marker inkscape:collect="always" inkscape:isstock="true" style="overflow:visible" id="marker6662" refX="0" refY="0" orient="auto" inkscape:stockid="StopL"><path style="fill:none;fill-opacity:0.75;fill-rule:evenodd;stroke:#000000;stroke-opacity:1;stroke-width:1.0666666666666667" d="M 0 4.52 L 0 -4.52" id="path6660"/></marker><marker inkscape:stockid="StopL" orient="auto" refY="0" refX="0" id="marker6786" style="overflow:visible" inkscape:isstock="true"><path id="path6784" d="M 0 4.52 L 0 -4.52" style="fill:none;fill-opacity:0.75;fill-rule:evenodd;stroke:#000000;stroke-opacity:1;stroke-width:1.0666666666666667"/></marker><marker inkscape:stockid="StopL" orient="auto" refY="0" refX="0" id="marker5690" style="overflow:visible" inkscape:isstock="true"><path id="path5688" d="M 0 4.52 L 0 -4.52" style="fill:none;fill-opacity:0.75;fill-rule:evenodd;stroke:#000000;stroke-opacity:1;stroke-width:1.0666666666666667"/></marker><marker inkscape:stockid="StopL" orient="auto" refY="0" refX="0" id="marker5766" style="overflow:visible" inkscape:isstock="true"><path id="path5764" d="M 0 4.52 L 0 -4.52" style="fill:none;fill-opacity:0.75;fill-rule:evenodd;stroke:#000000;stroke-opacity:1;stroke-width:1.0666666666666667"/></marker><marker inkscape:isstock="true" style="overflow:visible" id="marker5544" refX="0" refY="0" orient="auto" inkscape:stockid="StopL"><path style="fill:none;fill-opacity:0.75;fill-rule:evenodd;stroke:#000000;stroke-opacity:1;stroke-width:1.0666666666666667" d="M 0 4.52 L 0 -4.52" id="path5542"/></marker><marker inkscape:isstock="true" style="overflow:visible" id="marker5424" refX="0" refY="0" orient="auto" inkscape:stockid="StopL"><path style="fill:none;fill-opacity:0.75;fill-rule:evenodd;stroke:#000000;stroke-opacity:1;stroke-width:1.0666666666666667" d="M 0 4.52 L 0 -4.52" id="path5422"/></marker><marker inkscape:isstock="true" style="overflow:visible" id="marker5948" refX="0" refY="0" orient="auto" inkscape:stockid="StopL"><path style="fill:none;fill-opacity:0.75;fill-rule:evenodd;stroke:#000000;stroke-opacity:1;stroke-width:1.0666666666666667" d="M 0 4.52 L 0 -4.52" id="path5946"/></marker><marker inkscape:isstock="true" style="overflow:visible" id="marker6436" refX="0" refY="0" orient="auto" inkscape:stockid="StopL"><path style="fill:none;fill-opacity:0.75;fill-rule:evenodd;stroke:#000000;stroke-opacity:1;stroke-width:1.0666666666666667" d="M 0 4.52 L 0 -4.52" id="path6434"/></marker><marker inkscape:stockid="StopL" orient="auto" refY="0" refX="0" id="marker1912-5" style="overflow:visible" inkscape:isstock="true" inkscape:collect="always"><path id="path1910-7" d="M 0 4.52 L 0 -4.52" style="fill:none;fill-opacity:0.75;fill-rule:evenodd;stroke:#000000;stroke-opacity:1;stroke-width:1.0666666666666667"/></marker><marker inkscape:collect="always" inkscape:stockid="StopL" orient="auto" refY="0" refX="0" id="marker1435" style="overflow:visible" inkscape:isstock="true"><path id="path1433" d="M 0 4.52 L 0 -4.52" style="fill:none;fill-opacity:0.75;fill-rule:evenodd;stroke:#000000;stroke-opacity:1;stroke-width:1.0666666666666667"/></marker><marker inkscape:collect="always" inkscape:isstock="true" style="overflow:visible" id="marker1041" refX="0" refY="0" orient="auto" inkscape:stockid="StopL"><path style="fill:none;fill-opacity:0.75;fill-rule:evenodd;stroke:#000000;stroke-opacity:1;stroke-width:1.0666666666666667" d="M 0 4.52 L 0 -4.52" id="path1039"/></marker><marker inkscape:stockid="StopL" orient="auto" refY="0" refX="0" id="marker1041-2" style="overflow:visible" inkscape:isstock="true"><path id="path1039-1" d="M 0 4.52 L 0 -4.52" style="fill:none;fill-opacity:0.75;fill-rule:evenodd;stroke:#000000;stroke-opacity:1;stroke-width:1.0666666666666667"/></marker><marker inkscape:isstock="true" style="overflow:visible" id="marker2187" refX="0" refY="0" orient="auto" inkscape:stockid="StopL"><path style="fill:none;fill-opacity:0.75;fill-rule:evenodd;stroke:#000000;stroke-opacity:1;stroke-width:1.0666666666666667" d="M 0 4.52 L 0 -4.52" id="path2185"/></marker><marker inkscape:isstock="true" style="overflow:visible" id="marker13503-55" refX="0" refY="0" orient="auto" inkscape:stockid="StopL"><path style="fill:none;fill-opacity:0.75;fill-rule:evenodd;stroke:#000000;stroke-opacity:1;stroke-width:1.0666666666666667" d="M 0 4.52 L 0 -4.52" id="path13501-3"/></marker><marker inkscape:isstock="true" style="overflow:visible" id="marker13503-3-2" refX="0" refY="0" orient="auto" inkscape:stockid="StopL"><path style="fill:none;fill-opacity:0.75;fill-rule:evenodd;stroke:#000000;stroke-opacity:1;stroke-width:1.0666666666666667" d="M 0 4.52 L 0 -4.52" id="path13501-7-8"/></marker><marker inkscape:isstock="true" style="overflow:visible" id="marker13503-1" refX="0" refY="0" orient="auto" inkscape:stockid="StopL"><path style="fill:none;fill-opacity:0.75;fill-rule:evenodd;stroke:#000000;stroke-opacity:1;stroke-width:1.0666666666666667" d="M 0 4.52 L 0 -4.52" id="path13501-9-2"/></marker><marker inkscape:isstock="true" style="overflow:visible" id="marker13503-4" refX="0" refY="0" orient="auto" inkscape:stockid="StopL"><path style="fill:none;fill-opacity:0.75;fill-rule:evenodd;stroke:#000000;stroke-opacity:1;stroke-width:1.0666666666666667" d="M 0 4.52 L 0 -4.52" id="path13501-6"/></marker><marker inkscape:isstock="true" style="overflow:visible" id="marker13503-5-9" refX="0" refY="0" orient="auto" inkscape:stockid="StopL"><path style="fill:none;fill-opacity:0.75;fill-rule:evenodd;stroke:#000000;stroke-opacity:1;stroke-width:1.0666666666666667" d="M 0 4.52 L 0 -4.52" id="path13501-0"/></marker><marker inkscape:isstock="true" style="overflow:visible" id="marker13503-5-6" refX="0" refY="0" orient="auto" inkscape:stockid="StopL"><path style="fill:none;fill-opacity:0.75;fill-rule:evenodd;stroke:#000000;stroke-opacity:1;stroke-width:1.0666666666666667" d="M 0 4.52 L 0 -4.52" id="path13501-0-1"/></marker><marker inkscape:isstock="true" style="overflow:visible" id="marker13503-5-6-1" refX="0" refY="0" orient="auto" inkscape:stockid="StopL"><path style="fill:none;fill-opacity:0.75;fill-rule:evenodd;stroke:#000000;stroke-opacity:1;stroke-width:1.0666666666666667" d="M 0 4.52 L 0 -4.52" id="path13501-0-1-9"/></marker><marker inkscape:isstock="true" style="overflow:visible" id="marker13503-2-1" refX="0" refY="0" orient="auto" inkscape:stockid="StopL"><path style="fill:none;fill-opacity:0.75;fill-rule:evenodd;stroke:#000000;stroke-opacity:1;stroke-width:1.0666666666666667" d="M 0 4.52 L 0 -4.52" id="path13501-4"/></marker><marker inkscape:isstock="true" style="overflow:visible" id="marker13503-39" refX="0" refY="0" orient="auto" inkscape:stockid="StopL"><path style="fill:none;fill-opacity:0.75;fill-rule:evenodd;stroke:#000000;stroke-opacity:1;stroke-width:1.0666666666666667" d="M 0 4.52 L 0 -4.52" id="path13501-5"/></marker><marker inkscape:isstock="true" style="overflow:visible" id="marker13503-39-00" refX="0" refY="0" orient="auto" inkscape:stockid="StopL"><path style="fill:none;fill-opacity:0.75;fill-rule:evenodd;stroke:#000000;stroke-opacity:1;stroke-width:1.0666666666666667" d="M 0 4.52 L 0 -4.52" id="path13501-5-7"/></marker><marker inkscape:isstock="true" style="overflow:visible" id="marker13503-39-0" refX="0" refY="0" orient="auto" inkscape:stockid="StopL"><path style="fill:none;fill-opacity:0.75;fill-rule:evenodd;stroke:#000000;stroke-opacity:1;stroke-width:1.0666666666666667" d="M 0 4.52 L 0 -4.52" id="path13501-5-5"/></marker><marker inkscape:isstock="true" style="overflow:visible" id="marker13503-2-8" refX="0" refY="0" orient="auto" inkscape:stockid="StopL"><path style="fill:none;fill-opacity:0.75;fill-rule:evenodd;stroke:#000000;stroke-opacity:1;stroke-width:1.0666666666666667" d="M 0 4.52 L 0 -4.52" id="path13501-4-6"/></marker><marker inkscape:isstock="true" style="overflow:visible" id="marker13503-2-8-2" refX="0" refY="0" orient="auto" inkscape:stockid="StopL"><path style="fill:none;fill-opacity:0.75;fill-rule:evenodd;stroke:#000000;stroke-opacity:1;stroke-width:1.0666666666666667" d="M 0 4.52 L 0 -4.52" id="path13501-4-6-4"/></marker><marker inkscape:isstock="true" style="overflow:visible" id="marker13503-5-6-6" refX="0" refY="0" orient="auto" inkscape:stockid="StopL"><path style="fill:none;fill-opacity:0.75;fill-rule:evenodd;stroke:#000000;stroke-opacity:1;stroke-width:1.0666666666666667" d="M 0 4.52 L 0 -4.52" id="path13501-0-1-4"/></marker><marker inkscape:isstock="true" style="overflow:visible" id="marker13503-5-6-6-8" refX="0" refY="0" orient="auto" inkscape:stockid="StopL"><path style="fill:none;fill-opacity:0.75;fill-rule:evenodd;stroke:#000000;stroke-opacity:1;stroke-width:1.0666666666666667" d="M 0 4.52 L 0 -4.52" id="path13501-0-1-4-7"/></marker><marker inkscape:isstock="true" style="overflow:visible" id="marker13503-5-6-6-4" refX="0" refY="0" orient="auto" inkscape:stockid="StopL"><path style="fill:none;fill-opacity:0.75;fill-rule:evenodd;stroke:#000000;stroke-opacity:1;stroke-width:1.0666666666666667" d="M 0 4.52 L 0 -4.52" id="path13501-0-1-4-9"/></marker><marker inkscape:isstock="true" style="overflow:visible" id="marker13503-5-6-6-0" refX="0" refY="0" orient="auto" inkscape:stockid="StopL"><path style="fill:none;fill-opacity:0.75;fill-rule:evenodd;stroke:#000000;stroke-opacity:1;stroke-width:1.0666666666666667" d="M 0 4.52 L 0 -4.52" id="path13501-0-1-4-5"/></marker><marker inkscape:isstock="true" style="overflow:visible" id="marker13503-5-6-6-9" refX="0" refY="0" orient="auto" inkscape:stockid="StopL"><path style="fill:none;fill-opacity:0.75;fill-rule:evenodd;stroke:#000000;stroke-opacity:1;stroke-width:1.0666666666666667" d="M 0 4.52 L 0 -4.52" id="path13501-0-1-4-0"/></marker><marker inkscape:collect="always" inkscape:stockid="StopL" orient="auto" refY="0" refX="0" id="StopL-4" style="overflow:visible" inkscape:isstock="true"><path id="path1694" d="M 0 4.52 L 0 -4.52" style="fill:none;fill-opacity:0.75;fill-rule:evenodd;stroke:#000000;stroke-opacity:1;stroke-width:1.0666666666666667"/></marker><marker inkscape:isstock="true" style="overflow:visible" id="marker979" refX="0" refY="0" orient="auto" inkscape:stockid="StopL"><path style="fill:none;fill-opacity:0.75;fill-rule:evenodd;stroke:#000000;stroke-opacity:1;stroke-width:1.0666666666666667" d="M 0 4.52 L 0 -4.52" id="path977"/></marker><marker inkscape:stockid="StopL" orient="auto" refY="0" refX="0" id="marker933" style="overflow:visible" inkscape:isstock="true"><path id="path931" d="M 0 4.52 L 0 -4.52" style="fill:none;fill-opacity:0.75;fill-rule:evenodd;stroke:#000000;stroke-opacity:1;stroke-width:1.0666666666666667"/></marker><marker inkscape:stockid="StopL" orient="auto" refY="0" refX="0" id="marker1912-6" style="overflow:visible" inkscape:isstock="true" inkscape:collect="always"><path id="path1910-3" d="M 0 4.52 L 0 -4.52" style="fill:none;fill-opacity:0.75;fill-rule:evenodd;stroke:#000000;stroke-opacity:1;stroke-width:1.0666666666666667"/></marker><marker inkscape:isstock="true" style="overflow:visible" id="marker1912-3" refX="0" refY="0" orient="auto" inkscape:stockid="StopL"><path style="fill:none;fill-opacity:0.75;fill-rule:evenodd;stroke:#000000;stroke-opacity:1;stroke-width:1.0666666666666667" d="M 0 4.52 L 0 -4.52" id="path1910-9"/></marker><marker inkscape:isstock="true" style="overflow:visible" id="marker1440" refX="0" refY="0" orient="auto" inkscape:stockid="StopL" inkscape:collect="always"><path style="fill:none;fill-opacity:0.75;fill-rule:evenodd;stroke:#000000;stroke-opacity:1;stroke-width:1.0666666666666667" d="M 0 4.52 L 0 -4.52" id="path1438"/></marker><marker inkscape:stockid="StopL" orient="auto" refY="0" refX="0" id="marker1440-61" style="overflow:visible" inkscape:isstock="true"><path id="path1438-7" d="M 0 4.52 L 0 -4.52" style="fill:none;fill-opacity:0.75;fill-rule:evenodd;stroke:#000000;stroke-opacity:1;stroke-width:1.0666666666666667"/></marker><marker inkscape:stockid="StopL" orient="auto" refY="0" refX="0" id="marker2081" style="overflow:visible" inkscape:isstock="true" inkscape:collect="always"><path id="path2079" d="M 0 4.52 L 0 -4.52" style="fill:none;fill-opacity:0.75;fill-rule:evenodd;stroke:#000000;stroke-opacity:1;stroke-width:1.0666666666666667"/></marker><marker inkscape:isstock="true" style="overflow:visible" id="marker2081-1" refX="0" refY="0" orient="auto" inkscape:stockid="StopL"><path style="fill:none;fill-opacity:0.75;fill-rule:evenodd;stroke:#000000;stroke-opacity:1;stroke-width:1.0666666666666667" d="M 0 4.52 L 0 -4.52" id="path2079-4"/></marker><marker inkscape:isstock="true" style="overflow:visible" id="marker2554" refX="0" refY="0" orient="auto" inkscape:stockid="StopL" inkscape:collect="always"><path style="fill:none;fill-opacity:0.75;fill-rule:evenodd;stroke:#000000;stroke-opacity:1;stroke-width:1.0666666666666667" d="M 0 4.52 L 0 -4.52" id="path2552"/></marker><marker inkscape:isstock="true" style="overflow:visible" id="marker3023" refX="0" refY="0" orient="auto" inkscape:stockid="StopL" inkscape:collect="always"><path style="fill:none;fill-opacity:0.75;fill-rule:evenodd;stroke:#000000;stroke-opacity:1;stroke-width:1.0666666666666667" d="M 0 4.52 L 0 -4.52" id="path3021"/></marker><marker inkscape:isstock="true" style="overflow:visible" id="marker3680" refX="0" refY="0" orient="auto" inkscape:stockid="StopL" inkscape:collect="always"><path style="fill:none;fill-opacity:0.75;fill-rule:evenodd;stroke:#000000;stroke-opacity:1;stroke-width:1.0666666666666667" d="M 0 4.52 L 0 -4.52" id="path3678"/></marker><marker inkscape:stockid="StopL" orient="auto" refY="0" refX="0" id="marker3490" style="overflow:visible" inkscape:isstock="true" inkscape:collect="always"><path id="path3488" d="M 0 4.52 L 0 -4.52" style="fill:none;fill-opacity:0.75;fill-rule:evenodd;stroke:#000000;stroke-opacity:1;stroke-width:1.0666666666666667"/></marker><marker inkscape:stockid="StopL" orient="auto" refY="0" refX="0" id="marker3876" style="overflow:visible" inkscape:isstock="true" inkscape:collect="always"><path id="path3874" d="M 0 4.52 L 0 -4.52" style="fill:none;fill-opacity:0.75;fill-rule:evenodd;stroke:#000000;stroke-opacity:1;stroke-width:1.0666666666666667"/></marker><marker inkscape:stockid="StopL" orient="auto" refY="0" refX="0" id="marker5026" style="overflow:visible" inkscape:isstock="true"><path id="path5024" d="M 0 4.52 L 0 -4.52" style="fill:none;fill-opacity:0.75;fill-rule:evenodd;stroke:#000000;stroke-opacity:1;stroke-width:1.0666666666666667"/></marker><marker inkscape:isstock="true" style="overflow:visible" id="marker4372" refX="0" refY="0" orient="auto" inkscape:stockid="StopL" inkscape:collect="always"><path style="fill:none;fill-opacity:0.75;fill-rule:evenodd;stroke:#000000;stroke-opacity:1;stroke-width:1.0666666666666667" d="M 0 4.52 L 0 -4.52" id="path4370"/></marker><marker inkscape:isstock="true" style="overflow:visible" id="marker5026-5" refX="0" refY="0" orient="auto" inkscape:stockid="StopL"><path style="fill:none;fill-opacity:0.75;fill-rule:evenodd;stroke:#000000;stroke-opacity:1;stroke-width:1.0666666666666667" d="M 0 4.52 L 0 -4.52" id="path5024-2"/></marker><marker inkscape:collect="always" inkscape:stockid="StopL" orient="auto" refY="0" refX="0" id="marker3680-6" style="overflow:visible" inkscape:isstock="true"><path id="path3678-4" d="M 0 4.52 L 0 -4.52" style="fill:none;fill-opacity:0.75;fill-rule:evenodd;stroke:#000000;stroke-opacity:1;stroke-width:1.0666666666666667"/></marker><marker inkscape:isstock="true" style="overflow:visible" id="marker3680-6-0" refX="0" refY="0" orient="auto" inkscape:stockid="StopL" inkscape:collect="always"><path style="fill:none;fill-opacity:0.75;fill-rule:evenodd;stroke:#000000;stroke-opacity:1;stroke-width:1.0666666666666667" d="M 0 4.52 L 0 -4.52" id="path3678-4-4"/></marker><marker inkscape:isstock="true" style="overflow:visible" id="marker3680-6-2" refX="0" refY="0" orient="auto" inkscape:stockid="StopL" inkscape:collect="always"><path style="fill:none;fill-opacity:0.75;fill-rule:evenodd;stroke:#000000;stroke-opacity:1;stroke-width:1.0666666666666667" d="M 0 4.52 L 0 -4.52" id="path3678-4-1"/></marker><marker inkscape:collect="always" inkscape:stockid="StopL" orient="auto" refY="0" refX="0" id="marker3680-6-2-4" style="overflow:visible" inkscape:isstock="true"><path id="path3678-4-1-3" d="M 0 4.52 L 0 -4.52" style="fill:none;fill-opacity:0.75;fill-rule:evenodd;stroke:#000000;stroke-opacity:1;stroke-width:1.0666666666666667"/></marker><marker inkscape:isstock="true" style="overflow:visible" id="marker3680-6-2-4-4" refX="0" refY="0" orient="auto" inkscape:stockid="StopL" inkscape:collect="always"><path style="fill:none;fill-opacity:0.75;fill-rule:evenodd;stroke:#000000;stroke-opacity:1;stroke-width:1.0666666666666667" d="M 0 4.52 L 0 -4.52" id="path3678-4-1-3-5"/></marker><marker inkscape:collect="always" inkscape:stockid="StopL" orient="auto" refY="0" refX="0" id="marker3680-6-2-4-4-1" style="overflow:visible" inkscape:isstock="true"><path id="path3678-4-1-3-5-1" d="M 0 4.52 L 0 -4.52" style="fill:none;fill-opacity:0.75;fill-rule:evenodd;stroke:#000000;stroke-opacity:1;stroke-width:1.0666666666666667"/></marker><marker inkscape:isstock="true" style="overflow:visible" id="marker13503-44" refX="0" refY="0" orient="auto" inkscape:stockid="StopL"><path style="fill:none;fill-opacity:0.75;fill-rule:evenodd;stroke:#000000;stroke-opacity:1;stroke-width:1.0666666666666667" d="M 0 4.52 L 0 -4.52" id="path13501-42"/></marker><marker inkscape:isstock="true" style="overflow:visible" id="marker13503-8" refX="0" refY="0" orient="auto" inkscape:stockid="StopL"><path style="fill:none;fill-opacity:0.75;fill-rule:evenodd;stroke:#000000;stroke-opacity:1;stroke-width:1.0666666666666667" d="M 0 4.52 L 0 -4.52" id="path13501-1-0"/></marker><marker inkscape:isstock="true" style="overflow:visible" id="marker13503-8-8" refX="0" refY="0" orient="auto" inkscape:stockid="StopL"><path style="fill:none;fill-opacity:0.75;fill-rule:evenodd;stroke:#000000;stroke-opacity:1;stroke-width:1.0666666666666667" d="M 0 4.52 L 0 -4.52" id="path13501-1-8"/></marker><marker inkscape:collect="always" inkscape:isstock="true" style="overflow:visible" id="StopL-5" refX="0" refY="0" orient="auto" inkscape:stockid="StopL"><path style="fill:none;fill-opacity:0.75;fill-rule:evenodd;stroke:#000000;stroke-opacity:1;stroke-width:1.0666666666666667" d="M 0 4.52 L 0 -4.52" id="path1041-3"/></marker><marker inkscape:collect="always" inkscape:stockid="StopL" orient="auto" refY="0" refX="0" id="marker1158" style="overflow:visible" inkscape:isstock="true"><path id="path1156" d="M 0 4.52 L 0 -4.52" style="fill:none;fill-opacity:0.75;fill-rule:evenodd;stroke:#000000;stroke-opacity:1;stroke-width:1.0666666666666667"/></marker><marker inkscape:collect="always" inkscape:isstock="true" style="overflow:visible" id="marker1576" refX="0" refY="0" orient="auto" inkscape:stockid="StopL"><path style="fill:none;fill-opacity:0.75;fill-rule:evenodd;stroke:#000000;stroke-opacity:1;stroke-width:1.0666666666666667" d="M 0 4.52 L 0 -4.52" id="path1574"/></marker><marker inkscape:collect="always" inkscape:stockid="StopL" orient="auto" refY="0" refX="0" id="marker1822" style="overflow:visible" inkscape:isstock="true"><path id="path1820" d="M 0 4.52 L 0 -4.52" style="fill:none;fill-opacity:0.75;fill-rule:evenodd;stroke:#000000;stroke-opacity:1;stroke-width:1.0666666666666667"/></marker><marker inkscape:isstock="true" style="overflow:visible" id="marker2104" refX="0" refY="0" orient="auto" inkscape:stockid="StopL"><path style="fill:none;fill-opacity:0.75;fill-rule:evenodd;stroke:#000000;stroke-opacity:1;stroke-width:1.0666666666666667" d="M 0 4.52 L 0 -4.52" id="path2102"/></marker><marker inkscape:collect="always" inkscape:stockid="StopL" orient="auto" refY="0" refX="0" id="marker2296" style="overflow:visible" inkscape:isstock="true"><path id="path2294" d="M 0 4.52 L 0 -4.52" style="fill:none;fill-opacity:0.75;fill-rule:evenodd;stroke:#000000;stroke-opacity:1;stroke-width:1.0666666666666667"/></marker><marker inkscape:isstock="true" style="overflow:visible" id="marker3254" refX="0" refY="0" orient="auto" inkscape:stockid="StopL"><path style="fill:none;fill-opacity:0.75;fill-rule:evenodd;stroke:#000000;stroke-opacity:1;stroke-width:1.0666666666666667" d="M 0 4.52 L 0 -4.52" id="path3252"/></marker><marker inkscape:collect="always" inkscape:isstock="true" style="overflow:visible" id="marker1912-0" refX="0" refY="0" orient="auto" inkscape:stockid="StopL"><path style="fill:none;fill-opacity:0.75;fill-rule:evenodd;stroke:#000000;stroke-opacity:1;stroke-width:1.0666666666666667" d="M 0 4.52 L 0 -4.52" id="path1910-5"/></marker><marker inkscape:isstock="true" style="overflow:visible" id="marker1073" refX="0" refY="0" orient="auto" inkscape:stockid="StopL"><path style="fill:none;fill-opacity:0.75;fill-rule:evenodd;stroke:#000000;stroke-opacity:1;stroke-width:1.0666666666666667" d="M 0 4.52 L 0 -4.52" id="path1071-3"/></marker><marker inkscape:stockid="StopL" orient="auto" refY="0" refX="0" id="StopL-2" style="overflow:visible" inkscape:isstock="true" inkscape:collect="always"><path id="path2575" d="M 0 4.52 L 0 -4.52" style="fill:none;fill-opacity:0.75;fill-rule:evenodd;stroke:#000000;stroke-opacity:1;stroke-width:1.0666666666666667"/></marker><marker inkscape:isstock="true" style="overflow:visible" id="marker2730" refX="0" refY="0" orient="auto" inkscape:stockid="StopL"><path style="fill:none;fill-opacity:0.75;fill-rule:evenodd;stroke:#000000;stroke-opacity:1;stroke-width:1.0666666666666667" d="M 0 4.52 L 0 -4.52" id="path2728"/></marker><marker inkscape:stockid="StopL" orient="auto" refY="0" refX="0" id="marker2730-4" style="overflow:visible" inkscape:isstock="true"><path id="path2728-9" d="M 0 4.52 L 0 -4.52" style="fill:none;fill-opacity:0.75;fill-rule:evenodd;stroke:#000000;stroke-opacity:1;stroke-width:1.0666666666666667"/></marker><marker inkscape:stockid="StopL" orient="auto" refY="0" refX="0" id="marker2730-2" style="overflow:visible" inkscape:isstock="true"><path id="path2728-7" d="M 0 4.52 L 0 -4.52" style="fill:none;fill-opacity:0.75;fill-rule:evenodd;stroke:#000000;stroke-opacity:1;stroke-width:1.0666666666666667"/></marker><marker inkscape:isstock="true" style="overflow:visible" id="marker2730-2-3" refX="0" refY="0" orient="auto" inkscape:stockid="StopL"><path style="fill:none;fill-opacity:0.75;fill-rule:evenodd;stroke:#000000;stroke-opacity:1;stroke-width:1.0666666666666667" d="M 0 4.52 L 0 -4.52" id="path2728-7-2"/></marker><marker inkscape:isstock="true" style="overflow:visible" id="marker2730-2-7" refX="0" refY="0" orient="auto" inkscape:stockid="StopL"><path style="fill:none;fill-opacity:0.75;fill-rule:evenodd;stroke:#000000;stroke-opacity:1;stroke-width:1.0666666666666667" d="M 0 4.52 L 0 -4.52" id="path2728-7-4"/></marker><marker inkscape:stockid="StopL" orient="auto" refY="0" refX="0" id="marker2730-2-3-3" style="overflow:visible" inkscape:isstock="true"><path id="path2728-7-2-5" d="M 0 4.52 L 0 -4.52" style="fill:none;fill-opacity:0.75;fill-rule:evenodd;stroke:#000000;stroke-opacity:1;stroke-width:1.0666666666666667"/></marker></defs><g inkscape:groupmode="layer" id="layer3" inkscape:label="coast" style="display:inline" sodipodi:insensitive="true"><path style="fill:#333333;stroke:none" d="m -466.17578,252.6875 0.25781,0.88281 -0.72656,0.0977 -0.0898,-0.26172 z" id="path34"/><path style="fill:#333333;stroke:none" d="m -469.52734,241.66797 0.13281,0.33594 0.63281,0.043 0.0508,0.20704 -0.64062,0.24218 0.082,0.26953 -0.67188,-0.16406 z" id="path35"/><path style="fill:#333333;stroke:none" d="m -477.73047,249.57032 0.9336,0.29687 -0.3711,0.80078 -0.96484,-0.0117 0.78515,-0.42969 z" id="path33"/><path style="fill:#333333;stroke:none" d="m -486.87891,254.30078 v 0.85547 l -0.97656,-0.13672 -0.21484,-0.96875 0.65234,0.62109 0.27343,-0.37109 z" id="path32"/><path style="fill:#333333;stroke:none" d="m -479.14063,261.49218 1.00782,0.0977 -0.97266,1.09374 -0.20703,-0.53124 z" id="path31"/><path style="fill:#333333;stroke:none" d="m -481.70703,262.62109 0.18359,0.89844 -0.16015,0.10938 -0.66016,-0.76172 z" id="path30"/><path style="fill:#333333;stroke:none" d="m -481.64062,264.53906 1.23437,0.4336 0.21094,1.27734 -1.97266,-1.27344 z" id="path29"/><path style="fill:#333333;stroke:none" d="m -487.10937,268.90625 0.34765,0.59766 -0.22656,0.12109 h -0.58203 v -0.53906 l 0.125,-0.17969 z" id="path28"/><path style="fill:#333333;stroke:none" d="m -484.94531,274.76562 0.46484,0.57813 -0.14844,0.14062 h -0.49609 l -0.21094,0.21875 -0.17968,-0.3164 v -0.4375 l 0.21484,0.11719 z" id="path27"/><path style="fill:#333333;stroke:none" d="m -478.14062,274.05469 v 0.53125 l -0.44532,0.5 -0.64843,-0.49219 0.5625,-0.53906 z" id="path26"/><path style="fill:#333333;stroke:none" d="m -492.22101,279.36717 v -0.22662 l 0.16015,-0.0117 0.29297,0.33604 0.17188,0.008 0.14843,-0.0898 0.16407,0.62127 h -0.9375 v -0.0586 l 0.21875,-0.16411 z" id="path5"/><path style="fill:#333333;stroke:none" d="m -482.46094,278.52734 h 1.38672 l 0.33985,0.94922 -1.08985,0.46485 -1.27734,-0.73047 z" id="path25"/><path style="fill:#333333;stroke:none" d="m -487.27734,284.92578 0.46875,0.94922 -0.75,-0.5 -0.28125,0.44141 h -0.21094 l -0.13281,-0.7461 z" id="path24"/><path style="fill:#333333;stroke:none" d="m -474.56641,288.11719 0.39844,0.85547 -0.82812,0.65234 0.2539,-0.83984 -0.64062,-0.25782 z" id="path23"/><path style="fill:#333333;stroke:none" d="m -459.65625,284.14062 0.28906,0.37891 0.48828,-0.0781 0.16797,0.0703 v 0.34765 l -0.47265,0.44922 -0.14844,-0.11328 v -0.12109 l -0.0625,-0.0625 h -0.50391 z" id="path22"/><path style="fill:#333333;stroke:none" d="m -452.72266,292.35937 0.42188,0.53516 0.22266,-0.125 0.0781,0.68751 -0.85157,-0.10939 0.005,-0.0568 -0.14595,-0.0744 0.25861,-0.15787 -0.13672,-0.57031 z" id="path21"/><path style="fill:#333333;stroke:none" d="m -436.80859,285.02734 0.79687,0.55469 -0.41015,0.12891 -0.11329,0.23047 v 0.33203 h -0.41015 l -0.33594,-0.60938 0.17188,-0.0742 h 0.15234 z" id="path20"/><path style="fill:#333333;stroke:none" d="m -447.46875,268.72265 0.48829,0.44141 -0.19947,0.18717 -0.55054,0.34409 -0.11328,-0.11718 z" id="path19"/><path style="fill:#333333;stroke:none" d="m -442.14844,255.01953 -0.26172,0.44922 0.35157,0.43359 -0.32032,0.31641 -0.61718,-0.21094 -0.0672,-0.17088 0.22731,-0.12209 -0.25781,-0.57031 z" id="path18"/><path style="fill:#333333;stroke:none" d="m -443.9476,244.38045 -0.76219,0.65253 0.54729,0.3747 0.11184,-0.21316 0.58558,0.0129 0.1033,-0.20507 -0.63986,-0.30773 0.0721,-0.0513 z" id="path17"/><path style="fill:#333333;stroke:none" d="m -457.64063,238.06641 0.93359,0.51953 0.14844,-0.6211 z" id="path16"/><path style="fill:#333333;stroke:none" d="m -457.63672,260.76171 2.35965,-0.0201 5.7702,5.07355 1.24124,1.2356 -2.43559,2.43454 -0.71229,3.50971 -2.01981,5.36568 0.7927,0.4076 5.77991,-0.13511 -0.55145,4.35669 -1.53906,1.67741 -1.28086,0.34564 -2.5846,-2.19626 -2.25754,-0.44168 -0.77343,-0.96094 0.69922,-0.54688 0.39843,0.1875 -0.008,-0.13281 0.32031,0.008 0.0547,0.11327 0.0274,-0.12101 0.19528,-0.13289 0.2422,-0.0351 0.16797,-0.34375 -0.1797,-0.2461 0.16016,-0.082 -0.49219,-0.0859 -0.1914,-0.16406 0.0234,-0.10156 -0.3789,-0.11328 0.0547,0.19531 -0.39453,-0.27344 -0.0391,0.0937 -0.1875,-0.0937 0.043,-0.1875 -0.17578,-0.0547 -0.1211,-0.23047 -1.91796,2.4297 -3.88282,-1.51173 -3.32031,1.14454 -3.86328,-2.8711 -4.77277,0.59821 -0.70312,0.9577 -1.34348,0.40787 -1.59079,-1.09659 0.64453,-4.02734 -0.52343,-0.38673 0.0274,-0.41405 -0.4375,-0.32422 0.008,-0.5 -0.14062,-0.21094 -0.5625,0.15624 -0.0977,-0.45312 -0.21094,-0.16797 -0.69531,0.0195 -0.16406,-0.57031 -1.51172,0.84375 -0.43359,-0.67187 1.26562,-1.29297 0.40626,-1.00781 -0.72266,-0.99219 -1.87891,-0.70703 0.0977,-0.91797 1.9375,0.28907 -0.17188,-0.875 0.57031,-0.39063 -0.23828,-2.37891 1.4375,-0.41796 0.0547,-1.18751 0.14082,-0.15089 0.51934,-0.25146 0.004,-0.45703 0.3711,-0.45312 -2.45313,-1.08984 0.42969,-1.11328 1.37891,-0.16797 2.46093,0.94531 1.14453,-0.49218 0.4961,-2.08203 0.52343,-0.13282 2.09372,0.55068 1.94144,0.69151 1.81641,2.75781 3.24609,1.4336 0.0391,-0.14454 -0.21093,0.008 -0.0712,-0.19043 0.27427,-0.39159 0.16631,0.0833 0.17744,0.26829 0.26562,-0.004 0.009,0.21992 -0.0871,0.0613 0.1875,0.004 0.0156,-0.125 0.1717,-0.06 0.25798,0.0365 0.11722,-0.23438 0.34766,-0.0312 0.1289,-0.2461 0.28516,0.19922 -0.0742,-0.375 0.19531,-0.0664 -0.33913,-0.20724 -0.34837,-0.39823 -0.16797,-0.55078 0.16797,0.0156 -0.0586,-0.44532 0.36328,-0.0312 0.0195,0.22657 0.26953,0.13281 0.0937,-0.0742 -0.21484,-0.0782 0.15234,-0.42579 0.42969,0.0898 -0.0234,0.2422 0.1211,0.0234 0.21875,-0.23437 0.1914,0.25 0.39844,-0.10938 0.0781,0.3086 0.42968,0.36328 -0.0469,0.26562 0.29297,0.0625 0.22656,0.42188 h 0.13281 l -0.0976,0.24609 0.37109,-0.0586 0.69141,0.0703 0.004,0.57813 -0.15234,0.17968 1.14453,-0.375 z" id="path11"/><path style="fill:#333333;stroke:none" d="m 258.91406,118.27344 5.02344,1.10937 1.3125,2.60156 -0.2481,3.77746 0.91997,1.89291 v 3.13432 l -0.38872,3.38242 -1.31156,2.28164 -0.89157,0.55469 h -0.63471 l -2.98398,-1.51562 h -0.95888 l -1.57667,0.45312 -5.62807,-0.57856 -1.60432,-0.58746 -0.35679,-0.39681 v -0.44071 l 2.03941,-1.38888 0.9875,-0.80816 1.07762,-2.26133 1.30239,-0.83428 2.54725,-2.23452 0.12515,-0.97619 -0.3669,-0.83294 -0.37781,-0.3964 -0.60472,-0.25669 -0.71626,0.48804 -1.30696,1.64003 -2.41411,0.87284 h -0.65549 l -3.21312,-2.79004 -0.36433,-1.39251 0.50567,-0.21059 1.85939,-1.11495 1.66449,-2.11708 h 0.23047 l 2.97656,0.59764 1.91016,-1.17187 z" id="path14"/><path style="fill:#333333;stroke:none;stroke-opacity:1" d="m -38.566406,106.70703 6.097656,0.37891 0.289063,0.1875 6.132812,0.15625 6.225788,1.57524 4.485709,4.92765 4.099009,2.17656 -1.756718,0.93913 -0.497185,6.29767 0.541379,1.97769 -1.811961,0.41984 -0.585573,4.51886 -6.198233,-0.62977 -0.497184,-0.46404 -5.855728,-0.66291 -0.464039,0.3646 -5.899922,-1.00542 -0.673961,-0.45299 -5.137573,2.07713 0.519281,1.82301 -2.397533,0.53033 -1.21534,-3.414 -7.258893,-1.61309 1.480505,-7.2147 0.928077,-0.76235 2.132369,-5.78943 4.960796,-1.21534 1.59099,-0.23202 z" id="path43"/><path style="fill:#333333;stroke:none;stroke-opacity:1" d="m -186.85937,103.25 0.85937,0.4375 7.125,2.99219 6.52877,-0.18278 1.56889,-0.20992 6.08775,4.552 -0.32041,4.69563 1.57995,6.77276 0.30935,0.95017 -2.91681,2.02188 0.16573,6.29767 -3.57973,4.9608 -2.06608,5.39169 -0.43089,1.5247 -5.19282,3.74545 -1.80091,-0.23202 -1.29268,-0.46403 -5.24806,3.19303 -3.54658,1.66833 -4.29788,0.28726 -2.92787,-0.19888 -3.28141,1.97769 -5.04919,2.26495 -1.63518,-2.19866 -1.50261,-1.28163 -1.49155,-0.16573 -1.14415,-1.44849 0.54687,-1.875 0.17969,-1.52344 -0.67188,-1.875 -6.22656,-9.73437 1.14844,-5.24219 -1.07031,-10.14062 4.86718,-11.15625 13.42512,-5.38661 3.6452,3.08918 h 4.76562 z" id="path42"/><path style="fill:#333333;stroke:none" d="m -90.89288,128.09234 5.23617,-4.82542 13.82632,2.05898 9.01563,10.08107 0.65278,2.55882 1.92245,1.76276 0.97164,5.07181 -1.03125,1.63329 0.3125,3.8058 -1.375,2.18815 -2.57031,2.36788 0.14031,1.61573 -0.26517,0.88415 0.50824,6.94052 -7.02688,10.30027 -3.51533,1.51677 0.0312,1.27017 3.01815,13.97862 5.36594,2.16549 4.78365,1.66935 5.98318,0.66323 3.0273,3.26027 0.9336,0.14369 10.98225,-5.08935 0.2707,-0.29288 1.58128,-2.44322 6.93268,-1.67396 4.93077,1.74484 5.42416,-3.67823 10.22783,2.49569 3.2976,8.79342 -1.70147,11.47176 -5.48008,12.00224 -0.45813,1.34832 0.43548,1.36261 -1.06011,1.11299 -1.84266,-0.33993 -1.94699,-0.0469 -5.2726,8.94089 3.94164,8.70614 8.03743,5.08649 0.61872,2.8182 -9.41336,13.8921 -2.71795,8.18937 1.35898,9.39402 1.5026,7.61468 6.0546,4.61965 5.29225,3.62498 1.1159,3.86813 -0.65186,3.29343 -0.97227,5.93481 0.61872,2.06668 -3.00521,1.42016 -5.97726,-1.45884 -5.47507,0.78223 -4.16015,-13.03898 0.48047,-3.42679 -4.59375,-4.5951 -4.42969,-3.95428 -3.16406,-5.18902 -3.13282,-4.60291 -4.88281,-3.23533 -6.50396,-3.75617 -16.99994,-12.31105 v -1.91495 l 1.36372,-1.17526 0.5597,-0.34989 0.27237,-1.3401 -0.98078,-1.65982 -2.77751,-5.31342 -11.66797,-6.98642 -7.79488,-12.34075 -3.67917,-0.53049 -0.46404,-4.76332 h -1.0938 l 0.15468,-1.20464 0.96674,-2.24351 0.27069,-2.69664 -4.30893,-1.18807 -2.61298,-6.2553 -0.5248,-2.00038 -1.83406,-4.19968 0.41432,-3.72998 v -2.03905 l 0.83416,-4.6307 -0.20992,-0.67968 2.49145,-3.19949 0.43089,-1.50857 0.40327,-5.0562 0.7734,-0.31497 1.46946,-3.68025 0.81206,-1.27095 1.83406,-1.89539 0.45852,-3.1608 -2.07713,-2.64138 -6.24134,-11.36826 0.21436,-5.70123 -1.84511,-6.10058 1.31478,-2.80715 -0.11049,-2.42034 1.24849,-3.72445 0.28726,-1.34832 0.4454,-5.35521 0.57422,-0.24616 2.03125,-3.06731 3.54687,-0.83619 0.49219,-0.30478 4.17188,0.23445 z" id="path1"/><path style="fill:#333333;stroke:none;stroke-opacity:1" d="m -112.91797,129.31641 4.28516,1.30078 0.0703,4.80468 -0.36719,1.47657 0.71094,4.33593 -0.79687,3.79688 0.0781,1.64062 -0.32031,2.21094 -0.42188,3.26563 0.0625,0.32812 2.24744,5.9927 0.47509,1.17114 0.48614,1.08276 2.18761,4.40837 0.71815,0.99437 0.72921,1.04961 1.34792,2.50802 1.23744,2.43068 -0.60767,4.61829 -0.22097,0.82864 -1.20429,4.72878 -0.68501,0.13258 -2.46383,2.07713 -1.76777,2.50802 1.35898,5.02708 -0.29832,0.97228 -1.8451,3.14883 0.66291,2.23181 -1.69043,4.1653 -0.25411,0.90598 0.0773,3.3919 2.04398,2.93891 -0.88389,2.51907 -1.57994,1.83406 v 2.03293 l -4.5741,5.97726 -4.94974,-0.29831 -0.20993,-1.63518 -2.15446,-0.41985 -5.36959,6.52969 -3.90014,12.06501 -1.60204,9.00456 0.30936,1.63519 3.56868,5.67895 -1.70147,6.87219 -8.47424,10.61765 -6.79485,5.43589 -3.34771,3.08254 -2.40858,3.56868 -3.75651,6.64018 -6.04355,6.14299 -0.45299,1.66833 -2.02188,1.83405 -3.35876,-0.7513 -0.74025,-0.46404 -2.98311,-4.78401 v -4.34208 l 1.76777,-1.76777 1.29268,-2.46382 2.01083,-3.0494 0.86179,-1.43631 0.11048,-2.26495 -1.53575,-1.94455 -0.82864,2.02189 -2.7334,1.9715 -1.94013,0.91217 -1.72357,1.99978 -2.6848,1.03856 -1.00542,2.49698 -1.46945,2.39753 1.49155,2.43068 0.80654,2.26495 2.71795,2.86157 1.90035,6.06565 -2.12132,5.17072 -0.96123,0.20992 -2.94996,-0.12153 -3.71231,0.0884 -1.25953,0.43089 -1.31478,-0.69606 -2.6848,0.53033 -3.3919,-1.33687 -0.7292,0.86179 -2.15447,0.47508 -1.76777,-0.25411 -0.93912,-1.96664 -0.4088,0.0221 -7.64559,-4.1432 -3.86699,-7.28099 3.10464,-9.104 4.24264,-5.70105 0.65186,-1.70147 -1.18219,-2.02189 -4.69563,-3.21512 -5.00499,-2.81738 -11.07064,-8.15383 -2.83948,-8.44108 V 251.266 l 4.41942,-9.32498 0.65186,-6.38605 -1.71252,-1.71253 1.03856,-1.51365 1.69043,-0.20992 1.75672,-1.14905 4.1432,2.2981 3.7786,7.30309 7.63455,8.72834 8.52947,4.31998 7.92181,-2.29809 7.20365,-7.03792 3.30351,0.97227 3.87804,-4.25369 5.28121,-8.05439 0.78444,-2.24285 1.55785,-2.91682 2.05503,-1.51365 h 0.51928 l 1.1159,1.37002 0.35356,1.99979 1.94454,0.85073 2.69584,-1.5247 4.69563,-5.20386 v -4.98289 l -5.11547,-8.09859 -0.81759,-0.77339 -0.70711,-0.24307 -1.1601,-0.80654 -0.0466,-1.73667 0.0703,-1.90625 -0.35156,-2.11719 -4.89062,-9.86719 -1.90625,-1.42187 -0.6875,-1.09375 0.46875,-1.65625 1.73828,-0.70313 4.0805,-6.02526 4.40837,-11.08169 5.48008,-4.1653 4.02167,-7.966 0.99437,-1.138 -0.47509,-1.25953 -0.0773,-0.72921 0.7734,-1.32582 1.8893,-0.32041 1.56889,0.87284 2.72899,-1.04961 0.60767,-1.95007 -0.86731,-0.60767 -1.07171,-1.09933 3.33666,-8.7615 5.91014,-8.56531 9.45313,-3.29688 5.9375,0.92188 z" id="path41"/><path style="fill:#333333;stroke:none" d="m 201.16962,337.79447 2.69531,-11.74562 v -0.33604 l 14.13281,-14.48863 20.64063,-10.47182 7.20312,-1.22692 10.35479,-2.31447 1.40316,-1.02781 4.5962,-8.49883 v -3.38185 l -3.0273,-6.29952 h 1.41421 l 2.75109,0.79574 h 5.17072 l 4.88401,13.34957 0.27344,0.23445 0.8125,2.2194 2.26562,-0.46107 0.28125,0.0781 13.81228,-3.23038 9.93264,6.4653 3.20408,1.27095 1.12695,1.14939 5.96622,2.84031 6.24242,7.03999 1.01647,5.43747 1.9114,8.13412 0.35355,0.75152 0.36368,0.26346 1.00781,0.94558 1.34375,0.99247 2.65435,6.39677 v 0.44508 l -0.22097,2.29577 0.0994,1.1936 0.69606,2.39823 1.11591,2.34298 v 1.12728 l -0.34251,1.54172 -0.15468,1.55278 0.0884,3.78524 0.78445,2.65242 2.26495,5.17224 v 5.72483 l -1.25954,3.67472 -3.24827,-4.46493 -4.07139,-3.75208 -4.02719,-0.1492 -6.27557,4.78543 -4.22055,6.76369 -2.48592,5.39327 -7.06002,5.03961 h -4.55568 l -6.33594,-0.43109 -8.60938,6.07209 -5.62339,8.09637 -1.44736,4.17758 -1.33687,7.89097 -4.92765,6.53161 -12.89365,-3.21608 -13.2914,2.39825 -20.58343,-2.43139 -11.26952,-3.79077 -5.13757,0.79573 -11.29161,8.97405 -16.87113,5.30486 -13.28035,8.33304 -6.75066,9.64821 -7.95495,3.69129 -5.00499,2.69664 -1.66833,2.64138 -0.7734,1.61356 -12.89365,6.04533 -7.71188,5.71377 -2.05836,0.43781 -0.18688,-2e-5 v -0.58879 l 2.15625,-7.975 2.2461,-1.13314 4.82031,-2.78207 3.88281,-5.25936 3.3125,-4.99365 20.3153,-18.11663 11.29161,-19.08091 7.39309,-3.41594 2.83234,-6.69645 3.7565,-10.56551 -3.7786,-11.95802 -11.07064,-20.60053 -1.38107,-6.13375 h 1.43631 l 9.77796,3.97865 8.09858,-5.97901 h 2.91682 l 2.32019,1.48093 5.17072,2.54192 2.72899,-0.5968 z" id="path2"/><path style="fill:#333333;stroke:none;stroke-opacity:1" d="m -97.519531,-296.27344 0.253906,0.0117 -0.02734,0.125 0.101563,0.10156 -0.0078,0.23438 0.09766,-0.004 0.08594,0.10157 0.0039,0.1875 0.109375,0.0195 0.05859,0.14062 0.05469,-0.11328 h 0.113281 l 0.109375,0.13281 0.01172,-0.29687 0.203125,0.10156 0.03906,0.0703 0.03125,-0.14453 0.175781,0.004 0.179688,0.1289 0.05469,0.46875 0.125,0.0899 0.01172,0.11328 -0.09766,0.0664 0.105469,0.0234 -0.03125,0.31641 -0.07813,0.0273 0.03906,0.14063 0.07422,0.12109 -0.21875,0.26172 0.0039,0.5 -0.07031,0.0586 v 0.0781 l -0.535157,0.43359 -0.113281,-0.004 -0.05859,0.0781 -0.273437,-0.0781 -0.5,0.10547 -0.09375,-0.10157 -0.05078,0.13672 -0.359375,-0.004 -0.152344,-0.25 -0.140625,-0.0312 -0.03516,-0.125 -0.08203,-0.0117 -0.277343,-0.27735 0.121093,-0.0898 -0.191406,-0.0195 -0.07813,-0.33594 -0.09375,0.082 -0.09375,-0.17578 -0.01172,-0.19531 h 0.167969 l -0.117187,-0.10547 0.09375,-0.0586 -0.03516,-0.0742 0.230469,-0.64844 0.01172,-0.29688 0.179687,-0.0898 0.01953,-0.25 0.152343,-0.10937 0.08984,0.10937 0.01563,-0.19141 0.214844,-0.17968 0.08984,0.12109 0.125,-0.3125 0.117187,0.0234 0.03516,0.12109 0.02344,-0.16406 z" id="path40"/><path style="fill:#333333;stroke:none;stroke-opacity:1" d="m -77.742187,-355.77734 0.210937,0.40234 -0.648437,2.28125 -1.347657,0.56641 -1.453125,0.19922 0.238282,-0.53907 -0.242188,-0.58593 0.488281,-1.57032 0.707032,-0.45703 1.105468,0.0664 z" id="path39"/><path style="fill:#333333;stroke:none;stroke-opacity:1" d="m -19.324219,-397.05078 0.421875,0.4375 -0.160156,0.14063 0.128906,0.15624 0.121094,0.26954 -0.128906,0.25391 0.210939,0.0313 v 0.63282 l -0.132813,0.16011 -0.07812,0.64844 -0.378906,0.33203 -0.0039,0.1875 -0.09176,0.18133 -0.130899,0.0333 -0.324219,0.26171 -0.148437,0.40625 -0.21875,0.12891 -0.644531,0.25 -0.101563,-0.14844 -0.03125,0.1875 -0.59375,0.21484 -0.03125,-0.15625 -0.07813,0.10547 -0.167969,-0.17187 0.01953,-0.1211 -0.183594,0.0312 -0.324219,-0.32421 0.02344,-0.14454 -0.132813,-0.004 v -0.16406 l -0.210937,-0.29297 0.09766,-0.42578 0.332031,-0.53516 0.203125,-0.004 0.332032,-0.41015 0.398437,-1.02344 0.164062,0.10937 -0.01172,-0.23828 0.140625,-0.0508 0.01172,-0.26953 0.664063,-0.0781 -0.09375,-0.16015 0.511719,-0.16406 -0.0039,-0.19922 0.496094,0.0156 z" id="path38"/><path style="fill:#333333;stroke:none;stroke-opacity:1" d="m -3.4140626,-299.92188 0.9765626,1.03126 -0.5117188,0.83203 -2.0546874,0.51562 0.3359375,0.8086 v 0.46093 l -1.2304688,1.60157 0.2460938,1.17578 1.34375,0.55468 0.9687499,-1.11718 1.8906251,0.55078 0.97656245,1.03515 v 0.70313 l -0.70703125,0.59375 -0.6210937,-0.16016 -1.3046876,-0.11718 -0.6679687,0.46484 -2.9453125,0.48437 -1.4609375,-0.4414 -1.8750005,1.1875 -0.828125,0.65234 h -0.527343 l -1.761719,-0.64844 -4.359375,1.64063 h -1.429687 l -1.417969,-1.05078 -2.902344,1.6914 -1.746094,1.17969 -1.355468,-0.28125 -0.863282,0.50781 -1.335937,1.77344 -2.691406,-0.15625 -0.351563,-0.1289 -8.773437,2.70312 -3.679688,-0.5625 -2.136719,0.62109 -1.285156,-0.27343 h -1.570312 l -1.917969,1.26953 -2.101563,1.75 -1.882812,-0.0977 -1.488281,1.05469 -1.824219,0.59375 -0.765625,-0.60547 -3.3125,0.23828 -2.609375,-0.75 -4.777344,0.52344 -2.117187,0.57812 -2.539063,-0.33984 -0.324219,-0.14062 -1.308593,0.10156 -1.617188,-0.78906 -0.945312,0.33203 -2.746094,-0.46875 -1.085938,1.42187 -0.07813,0.3086 -0.964843,0.33984 -2.503907,-1.25 -1.796875,-0.33594 -1.152343,-1 -1.234375,-0.42187 -2.585938,1.27343 h -1.457031 l -3.695313,1.23047 -0.941406,2.24219 -1.152344,0.34766 -2.113291,-1.36328 -2.21875,-0.5586 -1.16015,0.76172 -0.61328,0.94531 h -0.78907 l -1.41795,-1.26953 -2.41797,-0.39453 h -1.57032 l -3.44531,-1.47266 -2.76172,0.125 -1.77343,-0.59375 -3.3711,-3.66406 v -2.875 l -0.28515,-1.26953 -0.53517,-1.12891 -1.96483,-1.41796 -1.26564,-1.5 -1.14452,-3.97657 0.42188,-0.79687 -1.01563,-3.07422 0.41797,-2.18359 1.375,-1.6211 0.10937,-0.38672 1.51953,0.48828 1.16016,-0.27734 3.01563,0.91797 2.37109,-0.85938 8.21875,4.69141 1.01563,2.84375 5.125,5.3125 0.61718,1.45313 4.97656,0.89062 4.734375,2.14063 1.984375,-0.11719 2.445313,1.17187 1.453125,0.20313 1.992187,-0.46094 0.859375,0.34375 h 0.382813 l 1.359375,0.40625 3.8125,0.38281 0.1875,0.22266 2.617187,0.90625 1.054688,-0.24219 0.726562,0.39063 0.851563,0.30078 1.648437,-0.17188 1.286883,0.1595 1.121427,-0.22097 0.68544,-0.4815 0.429688,-0.20312 1.933593,-0.69922 0.449219,0.0859 0.84375,-0.5 7.101563,-3.74219 6.84375,-0.46094 1.1875,-0.39843 0.28125,-0.5625 0.695312,-0.14844 7.835938,1.05469 6.59375,-2.5 2.265625,0.85156 4.195312,-0.84375 4.8125,-1.875 3.304688,0.0625 0.777343,-0.73047 1.113282,0.29687 1.714843,0.25 1.5625,-0.66015 1.597656,-0.8086 0.394532,-0.30859 2.34375,-0.19922 0.339843,-0.18359 2.960938,-1.86719 1.6412101,-2.46552 z" id="path36"/><path style="fill:#333333;stroke:none" d="m -17.57558,-458.90799 h 1.97769 l 2.52459,0.90072 2.56878,3.04477 0.23755,0.51943 1.41421,0.97256 -0.30936,1.53067 0.35356,0.71836 -0.90598,2.70217 -3.42505,1.35384 -1.51918,0.33155 -0.81207,0.41998 -1.2761,1.17701 -0.0442,0.19893 -4.20949,4.87384 -1.09147,0.64077 -1.61329,-0.46499 -0.85937,-0.37511 -1.60547,-2.40304 -0.89844,0.0742 -0.80468,-0.16021 0.21093,1.39494 0.51953,1.54733 1.82813,1.23865 -0.24892,3.73491 -1.9335,2.44245 -2.60745,1.62462 h -1.24849 l -1.33687,1.35936 -2.5779,0.89239 -0.85937,-0.30478 -1.72656,1.09407 -0.375,0.0781 -2.375,2.72737 -2.09375,1.96933 -0.55469,0.78148 -0.57813,4.30594 -2.08593,1.68018 -0.73438,-0.78538 -2.57812,2.56325 -0.5586,-0.46498 -0.13281,1.0042 -1.35937,2.20377 h -1.36329 l -0.35937,-0.2149 -0.63281,1.32851 -2.76953,1.06281 -0.8905,3.22103 0.13259,1.32069 -0.0939,4.04496 -2.14341,1.05545 -2.07161,-1.27097 -0.39222,-0.2155 -1.61309,-1.16596 -0.95017,1.03333 -1.19877,-0.80678 0.15468,-2.39271 -1.08983,-1.69371 v -4.9116 l -2.57422,1.43792 -2.16016,-2.00449 -0.32422,-0.0977 -0.19531,0.19146 -2.4375,1.82085 h -0.76172 l -1.91406,2.48119 -0.9375,-0.36729 -1.60938,1.17221 -1.51172,-1.36368 -1.01562,0.32823 -2.26233,-2.32036 -0.53033,-0.22657 -0.55795,0.5526 1.23191,0.62995 0.56348,1.91748 1.18771,1.50304 1.05514,1.75724 0.83581,0.85205 0.17578,0.30087 0.86328,0.75803 0.28906,-1.96933 2.64453,-2.55153 2.13672,-1.06672 2.32422,1.26991 0.17188,0.33603 0.21484,-0.32821 1.49219,-0.69162 0.16406,-0.17974 0.16406,0.14067 0.55469,-0.40246 2.10156,1.55905 -0.14844,4.41145 -2.27278,2.72826 -0.80534,0.97204 -0.63281,4.34502 0.41406,2.22723 -1.30469,1.50825 -4.70312,1.43792 -1.70313,-0.24616 -2.125,1.57467 -0.64453,2.65703 0.50781,2.92274 0.125,0.20318 -1.24218,2.08265 h -2.32422 l -1.72657,-1.055 -1.85546,2.89538 v 1.30507 l 4.52734,12.12856 -0.85938,4.69669 0.26563,4.00898 -0.52344,3.84488 0.0781,1.45355 -0.42969,0.6877 v 0.66426 l -2.39063,1.07844 -0.23437,0.25007 -0.59375,1.06282 -1.26563,0.90651 -1.83593,0.99248 -0.79688,0.57048 -1,0.55485 -1.00781,0.4767 v 0.16411 l -0.375,0.66427 0.39062,3.76672 15.00782,11.50338 2.01562,1.0081 5.4375,4.21999 -5.66406,7.24431 -3.35938,0.62519 -0.92968,-0.6877 -1.78907,-0.96904 -2.33593,0.56267 -1.92969,2.36007 0.21094,2.79769 0.53906,0.42982 1.75781,-0.13285 0.64844,0.35166 0.0156,0.844 -0.55243,0.52177 -0.62977,0.23209 -3.11016,2.50323 v 0.38129 l 0.98768,2.19927 v 0.24225 l -0.38282,0.37902 -0.48046,-0.31259 -2.34375,-0.33213 -1.98438,-1.00029 0.75,-0.75803 1.88672,0.33213 0.49609,-0.57048 v -0.29306 l -1.75,-1.29726 -0.8164,-0.97685 h -0.83203 l -0.75391,1.29335 -0.54688,0.28134 -1.61328,0.34775 -1.13281,-0.0664 -2.78516,3.88004 h -0.74218 l -1.47657,-2.67266 0.45704,-0.97294 -0.69532,-0.67207 -0.52734,-1.40666 -0.26172,-1.20739 -0.42187,-0.27352 -2.78516,-1.46918 -3.42188,-2.70392 -1.8164,-3.13373 -1.53516,-5.87672 v -4.3333 l 1.96485,-2.66485 1.07421,-0.91824 1.39063,-2.32881 0.15625,-3.31347 -0.89063,-1.96151 -2.21484,-1.14096 -1.58594,-0.23054 -0.71484,0.33995 -2.90234,0.57829 -1.98047,-1.17221 -0.47266,0.17192 -0.51953,-0.59002 -1.84766,-1.55904 -0.66015,-1.2113 v -0.88698 l 0.11328,-0.0781 0.98828,-3.2197 v -0.57829 l 0.21094,-0.18755 0.46875,-2.02403 v -1.8443 l 2.21484,-2.93445 0.0859,-0.41809 v -2.1139 l 1.0664,-1.06672 2.84766,0.65644 2.71484,-1.68018 0.84766,-2.53981 2.70313,-1.98886 h 0.26953 l 0.1485,-0.4064 0.82032,-0.42591 -0.15625,-2.52026 -0.97657,-0.83228 -0.9414,-1.75051 0.13281,-0.97295 -0.38672,-1.5864 -0.9375,-1.87945 -0.66406,-0.67989 -0.20703,-1.03156 0.26562,-0.25398 -0.9414,-2.33663 -0.0781,-0.62518 v -0.60564 l 0.33594,-0.62518 0.69141,0.28914 1.52343,-0.49233 1.79297,1.04328 0.8125,0.31259 1.94141,1.15659 0.58594,2.5359 0.55856,1.02373 v 1.88337 l -0.21484,0.57048 0.89843,0.64863 1.55469,2.02794 2.60547,2.66094 v 2.02402 l -0.0586,0.44154 0.0937,2.24285 -0.6211,0.25397 0.79297,0.85572 0.21875,-0.61346 0.30469,-0.19536 0.35937,-1.73489 1.3086,-0.66426 0.1914,-0.28914 -1.36718,-2.23894 -0.11719,-1.99669 -0.13281,-0.55484 -0.28907,-0.32822 -0.625,-0.37903 -1.8125,-0.4806 -1.69922,-1.54342 0.19922,-1.6372 -0.14843,-0.91433 0.30859,-1.61376 0.78125,-0.30087 -0.082,-0.27351 0.84375,-2.64532 -1.09766,-1.28943 -1.14062,-0.93778 -0.16407,0.0898 -0.6875,-0.3712 -1.44531,0.96903 -3.67187,-2.91491 -1.95313,-2.77035 -0.11719,-3.49321 1.14844,-1.25428 0.0664,0.0703 1.125,0.12504 0.8125,-0.19928 0.28125,-0.27742 0.21875,-1.13314 0.75781,-1.57468 0.82031,0.34775 3.64453,-3.51665 0.51563,-1.54734 0.15234,-0.0391 -0.13281,-2.30145 -1.51562,-2.31318 1.51171,-1.52388 0.26954,-1.03938 h 0.14062 l 1.6875,-1.70753 1.70313,-3.61434 0.88671,-1.36759 0.91797,-2.93054 2.47266,-4.19655 0.11719,0.0273 1,-1.05109 0.89453,-2.57887 1.75781,-1.5278 0.64844,-1.03937 2.01953,-2.48511 0.16797,-0.33212 2.44922,-1.477 0.27343,0.10941 1.22266,0.1563 1.46094,-0.84791 1.46875,-2.61014 4.75943,-3.35641 4.24817,-4.83516 h 2.77871 l 7.06002,1.67988 6.59045,-3.52 2.74557,-4.94015 -0.9778,-1.84565 0.24859,-1.01676 3.39743,-1.40358 1.69595,0.77363 1.43079,-0.69626 0.74144,0.0689 0.49609,0.16019 2.00781,0.11723 0.57813,0.21881 2.44141,-1.14878 3.75615,-0.1237 5.60713,-1.59698 0.81207,-0.34813 h 2.4583 l 3.36981,-2.42034 2.46935,-1.49752 z" id="path3"/><path style="fill:#333333;stroke:none;stroke-opacity:1" d="m 375.63295,35.895378 1.19972,2.31601 2.276,1.850631 1.29268,0.160204 1.19877,0.751301 -0.99437,0.580048 -1.87825,-0.364602 -1.25954,0.143631 -0.80102,0.662913 -4.44151,-0.889408 -1.33135,-1.309252 -0.4088,-1.165622 0.34251,-0.740252 0.89493,0.45299 1.11038,-0.602145 0.93266,-2.404121 0.56336,-0.437759 z" id="path45"/><path id="path44" style="fill:#333333;stroke:none;stroke-opacity:1" d="m 377,-62.484375 -2.11719,0.257813 -4.72265,3.349609 -2.79102,0.84375 -0.0645,-0.181641 -0.4375,0.333985 -9.19336,2.78125 -3.80078,5.005859 1.4707,4.882812 7.03711,6.121094 4.49805,6.054688 6.15234,-3.589844 3.80078,-5.248047 3.86719,-6.441406 1.93359,-7.552735 -2.32031,-2.960937 z"/><path id="path4" style="fill:#333333;stroke:none" d="m 445.38867,-62.259766 -4.88281,0.929688 -8.69531,6.27539 -4.20313,9.908204 -5.375,7.267578 -1,3.580078 0.73438,4.173828 2.15625,4 1.96093,1.353516 h 0.32618 l 8.62304,2.658203 3.65235,2.998047 -0.10157,2.93164 -2.84375,2.960938 -4.51562,3.205078 -5.35938,3.4140624 -9.17968,-3.8378904 -9.08008,-10.529297 -5.41406,-1.060547 -1.58985,-0.773438 -3.11718,-2.166015 -1.95508,-2.806641 -0.29883,-0.585937 -1.51367,-1.271485 -4.06446,2.044922 -1.15039,1.625 -2.08789,2.208985 -0.97265,0.642578 -2.7168,0.972656 -4.24219,0.740234 -12.07617,5.857422 -4.59766,7.902344 v 1.8457031 l 1.60352,4.6621094 3.08203,2.5214844 0.61914,0.1972656 6.61719,4.4648437 2.53125,5.6933598 0.0879,7.802734 -0.2207,0.816406 1.21484,6.400391 1.42578,2.353516 0.74024,0.341796 2.91601,2.310547 1.02734,2.044922 -0.0664,3.546875 2.27734,3.392578 0.15821,0.175782 1.53515,0.511718 h 1.58594 l 7.23828,-2.189453 6.23047,-3.769531 2.95117,-0.320313 12.35156,0.121094 7.43555,2.310547 6.81641,3.458984 2.68554,1.8125 0.88477,0.81836 -0.50977,1.501953 0.80664,1.558594 4.97266,2.519531 12.48438,-1.359375 7.23632,0.796875 4.28711,-0.71875 1.50782,-1.421875 v -0.398438 l -0.16016,-0.386718 -0.17188,-0.05469 -0.53515,-0.546875 0.0703,-0.863281 1.46484,-1.470703 0.11719,-0.664063 -7.23437,-6.96289 -3.07032,-5.28125 -4.61718,-3.119141 -10.82422,-9.804688 -0.002,-0.002 -0.41211,-0.636718 -0.0937,-0.316407 -0.23438,0.199219 -0.0898,-0.193359 v -0.597656 l -0.1875,0.193359 -0.68555,-1.476563 0.26172,-0.123046 -0.22656,-0.339844 0.43359,-0.4375 -0.44141,-0.488282 -0.33984,0.28711 0.24023,-2.541016 0.63282,-0.9785154 -0.20313,-0.40625 -0.61719,-0.5742187 -0.30859,-0.7265625 -0.30469,-0.4492188 -0.61718,-0.1484375 -0.58985,0.265625 -1.01953,-0.085937 -0.34375,-0.5429687 -1.16016,-1.0195313 -0.46484,-0.421875 -0.24219,-0.8945312 0.23828,-0.3691406 0.24414,0.1054687 0.19532,-0.671875 -0.37305,-0.1113281 -0.0195,-0.060547 0.0254,-0.5273437 h -0.18164 l -0.16992,-0.5683594 -0.0117,-0.066406 0.0391,-0.1113281 0.15235,0.00391 -0.19922,-0.390625 0.37109,-0.3007812 -0.39063,-0.3789062 -0.14648,0.1210937 -0.0137,-0.082031 0.22461,-0.34374995 L 435,1.0546875 434.98438,0.82421875 434.53906,0.64648438 434.8457,0.515625 l 0.0137,0.007813 0.008,0.125 0.63281,0.5507813 0.11133,-0.24023442 0.0898,0.0527344 0.30469,0.6738281 0.14453,0.2441406 0.49023,0.2324219 h 0.64063 l 1.19922,0.8398437 0.56445,0.8164063 -0.88476,2.4824218 0.27148,0.265625 1.16016,0.4863282 0.23047,1.09375 1.03906,1.1601562 0.16015,0.2050782 0.40625,-0.00195 10.6875,-4.4375 12,-1.140625 7.21289,-4.9863281 V -1.578125 l -4.77539,-10.464844 -10.42968,-9.595703 -3.38477,-4.353516 -2.19336,-8.759765 0.84375,-6.439453 0.79688,-3.892578 -1.35938,-9.220704 -2.39062,-5.908203 z"/><path style="fill:#333333;stroke:none" d="m 211.67969,-213.66406 1.68426,5.05651 -0.83417,3.23722 0.65772,4.27658 1.09375,0.73828 h 2.92578 l 2.50391,0.96875 1.94494,1.49626 -0.007,0.19905 0.28515,0.42969 -0.0195,0.22266 0.24219,0.28906 0.17187,0.0312 v 0.14844 l 0.39063,0.43359 v 0.16406 l 0.11328,-0.0508 0.48047,0.36328 h 0.11328 l 0.23438,-0.42968 0.48046,-0.0703 0.29688,0.30469 0.13672,-0.0156 0.375,-0.4375 h 0.87109 l 0.64063,-0.15235 h 0.52734 l 0.25391,0.19141 0.44531,-0.48828 h 0.33594 l 0.38672,0.28906 0.55468,-0.5 0.97657,0.14844 0.20703,0.26562 0.875,0.0664 0.97656,-0.22656 v -0.11719 l 0.27734,0.29297 h 0.14844 l 0.17969,-0.22656 0.20312,-0.17579 h 0.29297 l 0.39453,0.40235 0.57032,-0.44141 0.76562,0.16797 0.125,-0.11328 v -0.23438 h 0.5 v -0.42578 l 0.39063,-0.4414 0.30859,0.11328 0.11328,-0.57422 0.18359,-0.26172 0.60547,-0.39844 -0.0273,-0.0898 0.125,-0.19141 0.27734,-0.26172 0.65625,-0.20312 0.0195,-0.25781 0.38672,-0.004 0.49219,-0.42187 0.25391,0.0234 0.19922,-0.23828 v -0.15625 l 0.53515,-0.5 -0.30078,-0.17187 h 0.23828 v -0.47266 l 0.97656,-1.30469 -0.42187,-1.07031 -0.875,-0.22656 H 238.75 l -1.11719,-1.51563 v -0.46093 l 0.375,-1.42579 v -3.51562 l 0.89063,-3.55859 1.95703,-2.11329 1.03029,-3.95087 -1.22639,-1.71805 0.40328,-1.46393 -1.46394,-1.69043 -3.22065,-0.45852 h -2.09922 l -1.87825,-1.75119 v -1.53022 l -1.66833,-1.3866 h -1.49156 l -1.56883,-0.78065 -0.0703,0.0352 -1.4375,0.3125 -0.84375,-0.48828 -0.40625,-0.37891 -0.17578,-0.28125 -0.40234,-1.89843 v -0.3086 l 0.35156,-0.94922 -1.32813,-1.67187 h -1.04687 l -1.6875,1.28125 h -1.92969 l -1.75781,1.33594 -1.32813,1.54687 -1.69852,2.94156 0.66844,6.22033 -0.83417,4.13768 v 2.17656 z" id="path8"/><path id="path9" style="fill:#333333;stroke:none" d="m 170.99219,-225.04688 -4.80469,1.57813 -4.80469,1.21094 -1.58593,2.28906 0.58203,3.94922 -1.85547,3.33203 v 2.55078 l 0.46484,0.71094 1.8125,1.57031 v 4.19531 l -0.15625,0.11719 0.004,0.10938 0.0977,0.0273 -0.17578,0.125 0.004,0.17578 0.0781,0.0234 0.004,0.39844 -0.12891,0.33203 -0.14453,-0.008 0.0117,0.64063 -0.12109,0.0352 -0.0859,0.14062 0.008,0.35547 -0.10156,0.23047 -0.16797,0.082 0.0625,0.40625 -0.0859,0.23047 -0.20312,0.15234 0.0898,0.0625 -0.0703,0.0352 0.008,0.23047 0.15235,0.1289 -0.23438,0.004 -0.10937,0.0703 -0.14063,0.0117 0.008,0.29297 -0.17578,0.125 0.22266,0.15625 0.0156,0.27734 0.27735,-0.0703 0.038,0.0856 0.21984,-0.008 0.0273,-0.0977 0.0898,0.11719 0.16797,-0.16797 0.004,0.0117 0.97656,1.92969 v 0.53906 l -0.67187,4.19531 -0.38281,1.55469 -2.17188,2.34375 0.23438,3.32031 -0.42188,1.34375 -1.65625,0.96875 -0.29687,1.4375 0.57812,1.64844 6.61719,6.57812 1.75781,4.21094 7.54688,3.21875 3.72656,4.91406 7.78906,3.23438 2.00782,-1.625 5.50781,4.88281 5.82812,5.90625 5.01172,2.49609 2.875,3.66016 H 211.5 l 3.48438,1.5625 5.50781,-0.42969 6.78125,3.76563 6.80468,-1.83594 1.99219,-2.5 4.30469,-4.3125 0.95312,-0.57031 0.44532,-0.15625 h 0.58594 l 5.23437,0.78906 1.45313,0.41406 h 2.46093 l 0.39063,-0.33594 5.01562,-2.67187 2.26563,-1.00781 1.26562,0.15625 1.76563,1.30469 0.85156,0.92968 2.3125,6.94922 -2.0625,9.48047 1.14062,5.50586 4.69532,4.42578 6.60156,1.40234 h 1.94336 c 0,0 4.93493,-7.26501 4.95703,-7.28711 0.0221,-0.0221 1.9707,-9.25195 1.9707,-9.25195 l -4.0039,-5.43555 v -5.54687 l -0.65821,-1.08789 -2.52929,-6.55274 1.19726,-2.85546 6.67969,-4.7461 2.70703,-1.34179 4.71289,-6.5293 v -10.69922 l -4.46875,-4.24219 -4.64843,1.89063 -6.57813,-3.46875 -9.82031,1.92968 -0.49219,0.96876 -1.1875,1.70312 -0.625,0.21094 -1.34375,-0.0937 -0.58594,-0.20313 -2.01562,-1.1875 -3.42969,-2.51562 -6.35156,1.01562 -4.6875,-2.70312 -8.0625,1.64844 -4.67188,-2.27344 -5.79687,2.35156 h -5.91406 l -7.23438,-2.25781 -5.54688,-5.52344 -3.86718,-5.73437 -1.22656,-2.48438 -4.14063,-2.63281 -2.25781,-6.15625 -1.50782,-0.73438 -2.03906,0.60156 h -0.58594 l -0.79687,-0.26562 -0.42969,-0.25781 -2.4375,-3.16407 -0.14062,-0.27343 -3.61719,-2.73438 -9.46875,-3.50781 -1.96875,-3.00781 z"/><path id="path10" style="fill:#333333;stroke:none" d="m 50.050781,-70.929688 -3.652343,1.5 -1.015626,1.851563 -2.703124,1 -2.90625,-0.21875 -1.8125,-0.875 -5.148438,1.304687 -3.078125,2.796876 0.609375,2 5.046875,6.90625 3.71875,4.09375 3.65625,-0.59375 1.53125,1.375 0.898437,2.796874 3.011719,3.488282 0.34375,0.949218 -1,0.685547 0.324219,0.472657 -0.527344,0.296875 -0.691406,-1.009766 -0.515625,0.351563 1.060547,1.546874 0.455078,-0.310546 4.378906,7.822265 -1.007812,1.205078 -0.56836,-0.568359 -1.791015,-3.800781 -0.728516,-0.574219 -0.90625,0.199219 -0.783203,0.728515 v 2.341797 l 0.960938,1.4375 3.169921,3.291016 5.369141,8.308594 2.695312,2.435547 2.742188,5.101562 1.001953,2.378906 -0.107422,0.7187502 h 0.408203 0.002 l 0.09961,0.2421876 -0.294922,0.1289062 0.285156,0.5429688 0.25,-0.1054688 0.0293,0.070312 -0.154297,0.1757813 V -8.03125 l 0.449219,0.2109375 v 0.109375 l 0.269531,0.1640625 0.152344,-0.011719 0.382813,0.3671876 0.214843,-0.2539063 0.273438,0.1679687 -0.07422,0.3867188 0.347656,0.0625 0.285156,-0.074219 0.464844,-0.203125 0.316406,0.011719 -0.03911,-0.191406 h 0.5 v -0.4140626 h 0.132812 l -0.254466,-0.5425852 -0.08701,0.043499 -0.06477,-0.094664 0.171876,-0.265625 0.382812,-0.296875 -0.101562,-0.097656 0.148437,0.00781 0.339844,-0.3710937 -0.316407,-0.3984376 0.0625,-0.1835937 0.621094,0.2226563 0.132813,-0.2695313 -0.0625,-1.058594 -0.175781,-0.05859 v -0.248047 l 0.0059,-0.02148 0.138672,-0.238281 -0.08594,-0.002 0.199219,-0.880859 0.726562,-3.03125 2.011719,-1.425781 0.998047,-0.193359 1.923828,4.414062 0.01172,0.232422 0.07813,0.08203 -0.210938,0.253906 0.04688,0.167969 h 0.191406 l 0.09375,-0.08203 0.179687,0.488281 0.28125,-0.121094 v 0.28125 l 0.214844,0.113281 -0.355469,0.296876 0.429688,0.167968 -0.101563,0.140625 0.355469,-0.02734 0.01563,0.160156 -0.292969,0.125 0.265625,0.4765627 0.02734,0.28125 0.273437,-0.1015624 -0.01172,0.5625 0.06641,-0.097656 0.160156,0.023437 0.730469,-0.5742188 -0.179687,-0.4531255 0.328124,-0.480469 0.226563,0.09766 v -0.664063 l 0.195313,-0.304687 -0.304688,0.05078 0.382812,-0.417969 -0.28125,-0.06055 0.01953,-0.203125 0.195312,-0.134765 -0.162109,-0.230469 0.158203,-1.710937 1.966797,-1.226563 0.353515,-0.630859 1.876954,-2.253907 3.923828,-2.253906 3.203125,-1.402344 0.482422,-0.142578 0.480468,0.03711 0.01367,-0.181641 1.310547,-0.386719 3.173828,-2.042969 0.472656,0.09766 0.691407,-0.835938 0.792969,-0.449219 1.898437,-0.34375 0.101563,-0.820312 0.546874,-0.28125 1.3125,-2.585938 -1.664062,-5.164062 -1.203125,-2.382812 -0.515625,-2.570313 0.757812,-4.640625 0.945313,-1.984375 2.03125,-2.453125 -2.242187,-1.242188 -2.5,-3.4375 -1.27349,-4.820276 -1.78125,-2.390625 -0.378906,-1.808594 -0.527344,-0.640625 0.08594,-0.523437 -0.207032,0.02734 -0.195312,-0.109374 V -64.5 l 0.453125,-0.08984 -0.152344,-0.601562 -0.05859,0.08594 H 90.0625 l -0.09375,-0.101562 v -0.207031 l 0.214844,-0.277344 -0.371094,-0.375 -0.07422,0.02734 v -0.1875 l -0.09766,-0.01563 -0.08203,-0.507812 -0.214844,0.304688 H 88.58984 l -0.351563,0.519531 h 0.300781 l 0.113282,0.101562 0.105468,0.257813 -0.222656,-0.09766 -0.496094,0.269531 0.101563,0.03906 v 0.101563 h -0.09375 l -0.226563,0.210937 0.242188,0.34375 -0.109375,0.08984 0.140625,0.07031 -0.105469,0.02734 -0.01172,0.1875 -0.361328,0.132813 0.181641,0.513672 V -63.375 l -0.203125,0.464844 v 0.574218 l -0.742188,3.796876 -4.570312,7.035156 -2.351562,1.773437 -1.632813,0.472657 -2.1875,-0.453126 -0.636719,-0.667968 -0.15625,-0.546875 0.332032,-1.0625 -0.394532,-0.640625 h -0.839844 l -1.046874,0.703125 -0.160157,0.03516 L 73.042969,-52 l -0.691407,0.75 -0.789062,1.382812 -0.921875,1.078126 -0.929687,0.863281 -1.128907,0.691406 v 0.8125 l 1.03125,1.574219 -0.277343,0.855468 -1.6875,0.484376 -1.652344,-0.398438 -2.851563,-1.152344 -1.808593,-1.59375 -0.632813,-1.96875 0.552734,-1.324218 0.177735,-0.21875 0.414062,-2.523438 -0.621094,-1.074219 -0.71875,-0.355469 -1.285156,0.148438 -0.808594,-0.5 -1.8125,-2.851562 -0.453124,-1.460938 v -0.269531 l 1.242187,-1.511719 -0.410156,-2.542969 -0.800781,-0.605469 -1.195313,0.117188 -1.789063,-0.675781 -0.800781,-0.832031 -0.441406,-1.707032 -0.474609,-1.783203 -0.0332,-0.337891 z"/><path style="fill:#333333;stroke:none" d="m -428.21392,-17.887592 h 2.94996 l 3.39743,3.121214 0.71028,4.336691 -0.75,1.0937495 -2.10937,1.765625 -1.82422,6.2226563 V -0.90625 l -0.1836,0.90234375 0.0703,0.07421875 -0.0859,0.29296875 -0.13672,0.12109375 0.17187,0.109375 -0.1914,0.2578125 0.17969,-0.0742188 L -426.22656,1 l 0.0664,0.2851562 -0.16796,0.050781 0.12109,0.078125 -0.0781,0.054687 0.0117,0.2265625 -0.0898,0.019531 0.10156,0.1015625 L -426.50391,2 -426.76172,1.84375 V 1.5351562 l -0.0586,-0.015625 -0.0195,-0.2460937 -0.375,-0.6484375 -1.11328,-0.984375 -1.8711,-0.9648437 -4.00854,-0.9628298 -1.4805,-1.8340582 v -1.9997864 l 2.67375,-7.7229319 2.07712,-2.519068 z" id="path15"/><path id="path12" style="fill:#333333;stroke:none" d="m -436.31445,-47.314453 -1.6211,2.517578 -0.27148,0.277344 -0.10352,0.228515 -0.76367,0.273438 -0.23242,0.888672 -2.57617,2.646484 v 8.189453 l 1.02343,1.644531 1.7129,5.066407 -0.70899,3.710937 0.21094,0.246094 0.87891,0.140625 5.52343,0.296875 4.39063,0.476562 3.82812,0.634766 h 1.01563 l 2.00195,-0.330078 0.2832,0.195312 0.37891,-0.214843 0.13281,-0.03125 0.11328,0.117187 0.10547,-0.160156 0.4336,-0.01953 0.10547,0.113281 0.13281,-0.167969 0.15625,0.09375 V -20.625 l 0.23828,-0.06641 0.21484,0.08594 0.23047,-0.253906 -0.10156,-0.08594 0.10156,-0.105469 0.21485,-0.0039 0.0234,-0.519531 0.28125,-0.0625 0.0234,-0.08984 -0.0937,-0.05078 0.21875,-0.425781 -0.0898,-0.101563 0.082,-0.01562 0.004,-0.171876 -0.0859,-0.03906 v -0.02148 l 0.13281,-0.08789 v -0.261719 h -0.13281 v -0.01953 l 0.0781,-0.05859 v -0.822265 l 0.0781,-0.06445 v -0.214843 l -0.0781,-0.04492 v -0.443359 l 0.0312,-0.04688 -0.0312,-0.07031 v -0.132812 l -0.0781,-0.128907 0.10156,-0.02344 -0.0312,-0.15625 0.10156,-0.08984 -0.0976,-0.144531 0.0351,-0.04297 -0.0195,-0.05078 v -0.492188 l -0.0898,-0.01367 v -0.03906 l 0.0312,-0.0957 0.0351,-0.0039 0.0274,-0.257813 -0.0937,-0.0039 v -0.01367 l 0.14843,-0.251953 -0.0547,-0.253906 -0.0937,-0.04688 v -3.546874 l -0.52735,-0.9375 v -1.0625 l -1.94922,-7.992188 -2.89062,-1.361328 h -1.34766 l -5.87109,-3.986328 -1.70313,-0.876953 -1.13476,-0.621094 z"/></g></svg>