<?xml version="1.0" encoding="UTF-8" standalone="no"?>
<svg
   width="963.54999"
   height="920.03003"
   viewBox="0 0 963.54999 920.03003"
   fill="none"
   version="1.1"
   id="svg859"
   sodipodi:docname="basemap.svg"
   xml:space="preserve"
   inkscape:version="1.4.2 (f4327f4, 2025-05-13)"
   xmlns:inkscape="http://www.inkscape.org/namespaces/inkscape"
   xmlns:sodipodi="http://sodipodi.sourceforge.net/DTD/sodipodi-0.dtd"
   xmlns="http://www.w3.org/2000/svg"
   xmlns:svg="http://www.w3.org/2000/svg"><sodipodi:namedview
     id="namedview859"
     pagecolor="#ffffff"
     bordercolor="#000000"
     borderopacity="0.25"
     inkscape:showpageshadow="2"
     inkscape:pageopacity="0.0"
     inkscape:pagecheckerboard="0"
     inkscape:deskcolor="#d1d1d1"
     inkscape:zoom="0.70710678"
     inkscape:cx="-164.75588"
     inkscape:cy="-115.25841"
     inkscape:window-width="2560"
     inkscape:window-height="1369"
     inkscape:window-x="-8"
     inkscape:window-y="-8"
     inkscape:window-maximized="1"
     inkscape:current-layer="layer3"
     showgrid="false"><inkscape:grid
       id="grid859"
       units="px"
       originx="0"
       originy="0"
       spacingx="1"
       spacingy="1"
       empcolor="#0099e5"
       empopacity="0.30196078"
       color="#0099e5"
       opacity="0.14901961"
       empspacing="5"
       enabled="true"
       visible="false" /></sodipodi:namedview><defs
     id="defs859" /><g
     inkscape:groupmode="layer"
     id="layer3"
     inkscape:label="islands"><path
       id="path34"
       style="fill:#000000;fill-opacity:0;vector-effect:non-scaling-stroke;-inkscape-stroke:hairline"
       inkscape:label="sauthemptona21"
       d="M -17.576172 -458.9082 L -20.525391 -458.0293 L -22.994141 -456.53125 L -26.365234 -454.11133 L -28.822266 -454.11133 L -29.634766 -453.76367 L -35.242188 -452.16602 L -38.998047 -452.04297 L -41.439453 -450.89453 L -42.017578 -451.11328 L -44.025391 -451.23047 L -44.521484 -451.39062 L -45.263672 -451.45898 L -46.693359 -450.76367 L -48.390625 -451.53711 L -51.787109 -450.13281 L -52.035156 -449.11719 L -51.058594 -447.27148 L -53.804688 -442.33008 L -60.394531 -438.81055 L -67.455078 -440.49023 L -70.232422 -440.49023 L -74.480469 -435.65625 L -79.240234 -432.29883 L -80.708984 -429.68945 L -82.169922 -428.83984 L -83.392578 -428.99805 L -83.666016 -429.10742 L -86.115234 -427.62891 L -86.283203 -427.29688 L -88.302734 -424.8125 L -88.951172 -423.77344 L -90.708984 -422.24609 L -91.603516 -419.66602 L -92.603516 -418.61523 L -92.720703 -418.64258 L -95.193359 -414.44531 L -96.111328 -411.51562 L -96.998047 -410.14844 L -98.701172 -406.5332 L -100.38867 -404.82617 L -100.5293 -404.82617 L -100.79883 -403.78711 L -102.31055 -402.26172 L -100.79492 -399.94922 L -100.66211 -397.64844 L -100.81445 -397.60938 L -101.33008 -396.0625 L -104.97461 -392.54492 L -105.79492 -392.89258 L -106.55273 -391.31836 L -106.77148 -390.18555 L -107.05273 -389.9082 L -107.86523 -389.70898 L -108.99023 -389.83398 L -109.05664 -389.9043 L -110.20508 -388.64844 L -110.08789 -385.15625 L -108.13477 -382.38477 L -104.46289 -379.4707 L -103.01758 -380.43945 L -102.33008 -380.06836 L -102.16602 -380.1582 L -101.02539 -379.2207 L -99.927734 -377.93164 L -100.77148 -375.28516 L -100.68945 -375.01172 L -101.4707 -374.71094 L -101.7793 -373.09766 L -101.63086 -372.18359 L -101.83008 -370.54688 L -100.13086 -369.00195 L -98.318359 -368.52148 L -97.693359 -368.14258 L -97.404297 -367.81445 L -97.271484 -367.25977 L -97.154297 -365.26367 L -95.787109 -363.02539 L -95.978516 -362.73438 L -97.287109 -362.07031 L -97.646484 -360.33594 L -97.951172 -360.14062 L -98.169922 -359.52734 L -98.962891 -360.38281 L -98.341797 -360.63672 L -98.435547 -362.87891 L -98.376953 -363.32227 L -98.376953 -365.3457 L -100.98242 -368.00586 L -102.53711 -370.03516 L -103.43555 -370.68359 L -103.2207 -371.25391 L -103.2207 -373.13672 L -103.7793 -374.16016 L -104.36523 -376.69727 L -106.30664 -377.85352 L -107.11914 -378.16602 L -108.91211 -379.20898 L -110.43555 -378.7168 L -111.12695 -379.00586 L -111.46289 -378.38086 L -111.46289 -377.77539 L -111.38477 -377.15039 L -110.44336 -374.8125 L -110.70898 -374.55859 L -110.50195 -373.52734 L -109.83789 -372.84766 L -108.90039 -370.96875 L -108.51367 -369.38086 L -108.64648 -368.4082 L -107.70508 -366.6582 L -106.72852 -365.82617 L -106.57227 -363.30664 L -107.39258 -362.87891 L -107.54102 -362.47266 L -107.81055 -362.47266 L -110.51367 -360.48438 L -111.36133 -357.94531 L -114.07617 -356.26367 L -116.92383 -356.92188 L -117.99023 -355.85352 L -117.99023 -353.74023 L -118.07617 -353.32227 L -120.29102 -350.38867 L -120.29102 -348.54297 L -120.75977 -346.51953 L -120.9707 -346.33203 L -120.9707 -345.75391 L -121.95898 -342.5332 L -122.07227 -342.45508 L -122.07227 -341.56836 L -121.41211 -340.35742 L -119.56445 -338.79883 L -119.04492 -338.20898 L -118.57227 -338.38086 L -116.5918 -337.20898 L -113.68945 -337.78711 L -112.97461 -338.12695 L -111.38867 -337.89648 L -109.17383 -336.75586 L -108.2832 -334.79297 L -108.43945 -331.48047 L -109.83008 -329.15039 L -110.9043 -328.23242 L -112.86914 -325.56836 L -112.86914 -321.23438 L -111.33398 -315.35742 L -109.51758 -312.22461 L -106.0957 -309.51953 L -103.31055 -308.05078 L -102.88867 -307.77734 L -102.62695 -306.57031 L -102.09961 -305.16406 L -101.4043 -304.49219 L -101.86133 -303.51953 L -100.38477 -300.8457 L -99.642578 -300.8457 L -96.857422 -304.72656 L -95.724609 -304.66016 L -94.111328 -305.00781 L -93.564453 -305.28906 L -92.810547 -306.58203 L -91.978516 -306.58203 L -91.162109 -305.60547 L -89.412109 -304.30859 L -89.412109 -304.01562 L -89.908203 -303.44531 L -91.794922 -303.77734 L -92.544922 -303.01953 L -90.560547 -302.01758 L -88.216797 -301.68555 L -87.736328 -301.37305 L -87.353516 -301.75195 L -87.353516 -301.99414 L -88.341797 -304.19336 L -88.341797 -304.57617 L -85.230469 -307.07812 L -84.601562 -307.31055 L -84.048828 -307.83203 L -84.064453 -308.67578 L -84.712891 -309.02734 L -86.470703 -308.89453 L -87.009766 -309.32422 L -87.220703 -312.12305 L -85.291016 -314.48242 L -82.955078 -315.04492 L -81.166016 -314.07617 L -80.236328 -313.38867 L -76.876953 -314.01367 L -71.212891 -321.25781 L -76.650391 -325.47852 L -78.666016 -326.48633 L -93.673828 -337.99023 L -94.064453 -341.75586 L -93.689453 -342.41992 L -93.689453 -342.58398 L -92.681641 -343.0625 L -91.681641 -343.61719 L -90.884766 -344.1875 L -89.048828 -345.17969 L -87.783203 -346.08594 L -87.189453 -347.14844 L -86.955078 -347.39844 L -84.564453 -348.47656 L -84.564453 -349.14062 L -84.134766 -349.83008 L -84.212891 -351.2832 L -83.689453 -355.12695 L -83.955078 -359.13672 L -83.095703 -363.83398 L -87.623047 -375.96094 L -87.623047 -377.26758 L -85.767578 -380.16211 L -84.041016 -379.10742 L -81.716797 -379.10742 L -80.474609 -381.18945 L -80.599609 -381.39258 L -81.107422 -384.31641 L -80.462891 -386.97266 L -78.337891 -388.54688 L -76.634766 -388.30078 L -71.931641 -389.74023 L -70.626953 -391.24805 L -71.041016 -393.47461 L -70.408203 -397.82031 L -69.603516 -398.79102 L -67.330078 -401.51953 L -67.181641 -405.93164 L -69.283203 -407.49023 L -69.837891 -407.08789 L -70.001953 -407.22852 L -70.166016 -407.04883 L -71.658203 -406.35742 L -71.873047 -406.0293 L -72.044922 -406.36523 L -74.369141 -407.63477 L -76.505859 -406.56836 L -79.150391 -404.01758 L -79.439453 -402.04688 L -80.302734 -402.80664 L -80.478516 -403.10742 L -81.314453 -403.95898 L -82.369141 -405.7168 L -83.556641 -407.21875 L -84.121094 -409.13672 L -85.353516 -409.76562 L -84.794922 -410.31836 L -84.263672 -410.0918 L -82.001953 -407.77148 L -80.986328 -408.09961 L -79.474609 -406.73633 L -77.865234 -407.9082 L -76.927734 -407.54102 L -75.013672 -410.02344 L -74.251953 -410.02344 L -71.814453 -411.84375 L -71.619141 -412.03516 L -71.294922 -411.9375 L -69.134766 -409.93359 L -66.560547 -411.37109 L -66.560547 -406.45898 L -65.470703 -404.76562 L -65.625 -402.37305 L -64.427734 -401.56641 L -63.476562 -402.59961 L -61.863281 -401.43359 L -61.470703 -401.2168 L -59.400391 -399.94727 L -57.255859 -401.00195 L -57.162109 -405.04688 L -57.294922 -406.36719 L -56.404297 -409.58984 L -53.634766 -410.65234 L -53.001953 -411.98047 L -52.642578 -411.76562 L -51.279297 -411.76562 L -49.919922 -413.96875 L -49.787109 -414.97266 L -49.228516 -414.50781 L -46.650391 -417.07227 L -45.916016 -416.28711 L -43.830078 -417.9668 L -43.251953 -422.27148 L -42.697266 -423.05469 L -40.603516 -425.02344 L -38.228516 -427.75 L -37.853516 -427.82812 L -36.126953 -428.92188 L -35.267578 -428.61719 L -32.689453 -429.50977 L -31.353516 -430.86914 L -30.105469 -430.86914 L -27.498047 -432.49414 L -25.564453 -434.9375 L -25.314453 -438.67188 L -27.142578 -439.91016 L -27.662109 -441.45703 L -27.873047 -442.85352 L -27.068359 -442.69141 L -26.169922 -442.76562 L -24.564453 -440.36328 L -23.705078 -439.98828 L -22.091797 -439.52344 L -21 -440.16406 L -16.791016 -445.03711 L -16.746094 -445.23633 L -15.470703 -446.41406 L -14.658203 -446.83398 L -13.138672 -447.16602 L -9.7148438 -448.51953 L -8.8085938 -451.2207 L -9.1621094 -451.93945 L -8.8535156 -453.4707 L -10.267578 -454.44336 L -10.503906 -454.96289 L -13.074219 -458.00781 L -15.597656 -458.9082 L -17.576172 -458.9082 z M -19.324219 -397.05078 L -19.453125 -396.96094 L -19.949219 -396.97656 L -19.945312 -396.77734 L -20.457031 -396.61328 L -20.363281 -396.45312 L -21.027344 -396.375 L -21.039062 -396.10547 L -21.179688 -396.05469 L -21.167969 -395.81641 L -21.332031 -395.92578 L -21.730469 -394.90234 L -22.0625 -394.49219 L -22.265625 -394.48828 L -22.597656 -393.95312 L -22.695312 -393.52734 L -22.484375 -393.23438 L -22.484375 -393.07031 L -22.351562 -393.06641 L -22.375 -392.92188 L -22.050781 -392.59766 L -21.867188 -392.62891 L -21.886719 -392.50781 L -21.71875 -392.33594 L -21.640625 -392.44141 L -21.609375 -392.28516 L -21.015625 -392.5 L -20.984375 -392.6875 L -20.882812 -392.53906 L -20.238281 -392.78906 L -20.019531 -392.91797 L -19.871094 -393.32422 L -19.546875 -393.58594 L -19.416016 -393.61914 L -19.324219 -393.80078 L -19.320312 -393.98828 L -18.941406 -394.32031 L -18.863281 -394.96875 L -18.730469 -395.12891 L -18.730469 -395.76172 L -18.941406 -395.79297 L -18.8125 -396.04688 L -18.933594 -396.31641 L -19.0625 -396.47266 L -18.902344 -396.61328 L -19.324219 -397.05078 z M -77.742188 -355.77734 L -78.683594 -355.41406 L -79.789062 -355.48047 L -80.496094 -355.02344 L -80.984375 -353.45312 L -80.742188 -352.86719 L -80.980469 -352.32812 L -79.527344 -352.52734 L -78.179688 -353.09375 L -77.53125 -355.375 L -77.742188 -355.77734 z M -127.53516 -302.39844 L -127.64453 -302.01172 L -129.01953 -300.39062 L -129.4375 -298.20703 L -128.42188 -295.13281 L -128.84375 -294.33594 L -127.69922 -290.35938 L -126.43359 -288.85938 L -124.46875 -287.44141 L -123.93359 -286.3125 L -123.64844 -285.04297 L -123.64844 -282.16797 L -120.27734 -278.50391 L -118.50391 -277.91016 L -115.74219 -278.03516 L -112.29688 -276.5625 L -110.72656 -276.5625 L -108.30859 -276.16797 L -106.89062 -274.89844 L -106.10156 -274.89844 L -105.48828 -275.84375 L -104.32812 -276.60547 L -102.10938 -276.04688 L -99.996094 -274.68359 L -98.84375 -275.03125 L -97.902344 -277.27344 L -94.207031 -278.50391 L -92.75 -278.50391 L -90.164062 -279.77734 L -88.929688 -279.35547 L -87.777344 -278.35547 L -85.980469 -278.01953 L -83.476562 -276.76953 L -82.511719 -277.10938 L -82.433594 -277.41797 L -81.347656 -278.83984 L -78.601562 -278.37109 L -77.65625 -278.70312 L -76.039062 -277.91406 L -74.730469 -278.01562 L -74.40625 -277.875 L -71.867188 -277.53516 L -69.75 -278.11328 L -64.972656 -278.63672 L -62.363281 -277.88672 L -59.050781 -278.125 L -58.285156 -277.51953 L -56.460938 -278.11328 L -54.972656 -279.16797 L -53.089844 -279.07031 L -50.988281 -280.82031 L -49.070312 -282.08984 L -47.5 -282.08984 L -46.214844 -281.81641 L -44.078125 -282.4375 L -40.398438 -281.875 L -31.625 -284.57812 L -31.273438 -284.44922 L -28.582031 -284.29297 L -27.246094 -286.06641 L -26.382812 -286.57422 L -25.027344 -286.29297 L -23.28125 -287.47266 L -20.378906 -289.16406 L -18.960938 -288.11328 L -17.53125 -288.11328 L -13.171875 -289.75391 L -11.410156 -289.10547 L -10.882812 -289.10547 L -10.054688 -289.75781 L -8.1796875 -290.94531 L -6.71875 -290.50391 L -3.7734375 -290.98828 L -3.1054688 -291.45312 L -1.8007812 -291.33594 L -1.1796875 -291.17578 L -0.47265625 -291.76953 L -0.47265625 -292.47266 L -1.4492188 -293.50781 L -3.3398438 -294.05859 L -4.3085938 -292.94141 L -5.6523438 -293.49609 L -5.8984375 -294.67188 L -4.6679688 -296.27344 L -4.6679688 -296.73438 L -5.0039062 -297.54297 L -2.9492188 -298.05859 L -2.4375 -298.89062 L -3.4140625 -299.92188 L -7.09375 -298.55859 L -8.734375 -296.09375 L -11.695312 -294.22656 L -12.035156 -294.04297 L -14.378906 -293.84375 L -14.773438 -293.53516 L -16.371094 -292.72656 L -17.933594 -292.06641 L -19.648438 -292.31641 L -20.761719 -292.61328 L -21.539062 -291.88281 L -24.84375 -291.94531 L -29.65625 -290.07031 L -33.851562 -289.22656 L -36.117188 -290.07812 L -42.710938 -287.57812 L -50.546875 -288.63281 L -51.242188 -288.48438 L -51.523438 -287.92188 L -52.710938 -287.52344 L -59.554688 -287.0625 L -66.65625 -283.32031 L -67.5 -282.82031 L -67.949219 -282.90625 L -69.882812 -282.20703 L -70.3125 -282.00391 L -70.998047 -281.52148 L -72.119141 -281.30078 L -73.40625 -281.46094 L -75.054688 -281.28906 L -75.90625 -281.58984 L -76.632812 -281.98047 L -77.6875 -281.73828 L -80.304688 -282.64453 L -80.492188 -282.86719 L -84.304688 -283.25 L -85.664062 -283.65625 L -86.046875 -283.65625 L -86.90625 -284 L -88.898438 -283.53906 L -90.351562 -283.74219 L -92.796875 -284.91406 L -94.78125 -284.79688 L -99.515625 -286.9375 L -104.49219 -287.82812 L -105.10938 -289.28125 L -110.23438 -294.59375 L -111.25 -297.4375 L -119.46875 -302.12891 L -121.83984 -301.26953 L -124.85547 -302.1875 L -126.01562 -301.91016 L -127.53516 -302.39844 z M -97.519531 -296.27344 L -97.613281 -296.17578 L -97.636719 -296.01172 L -97.671875 -296.13281 L -97.789062 -296.15625 L -97.914062 -295.84375 L -98.003906 -295.96484 L -98.21875 -295.78516 L -98.234375 -295.59375 L -98.324219 -295.70312 L -98.476562 -295.59375 L -98.496094 -295.34375 L -98.675781 -295.25391 L -98.6875 -294.95703 L -98.917969 -294.30859 L -98.882812 -294.23438 L -98.976562 -294.17578 L -98.859375 -294.07031 L -99.027344 -294.07031 L -99.015625 -293.875 L -98.921875 -293.69922 L -98.828125 -293.78125 L -98.75 -293.44531 L -98.558594 -293.42578 L -98.679688 -293.33594 L -98.402344 -293.05859 L -98.320312 -293.04688 L -98.285156 -292.92188 L -98.144531 -292.89062 L -97.992188 -292.64062 L -97.632812 -292.63672 L -97.582031 -292.77344 L -97.488281 -292.67188 L -96.988281 -292.77734 L -96.714844 -292.69922 L -96.65625 -292.77734 L -96.542969 -292.77344 L -96.007812 -293.20703 L -96.007812 -293.28516 L -95.9375 -293.34375 L -95.941406 -293.84375 L -95.722656 -294.10547 L -95.796875 -294.22656 L -95.835938 -294.36719 L -95.757812 -294.39453 L -95.726562 -294.71094 L -95.832031 -294.73438 L -95.734375 -294.80078 L -95.746094 -294.91406 L -95.871094 -295.00391 L -95.925781 -295.47266 L -96.105469 -295.60156 L -96.28125 -295.60547 L -96.3125 -295.46094 L -96.351562 -295.53125 L -96.554688 -295.63281 L -96.566406 -295.33594 L -96.675781 -295.46875 L -96.789062 -295.46875 L -96.84375 -295.35547 L -96.902344 -295.49609 L -97.011719 -295.51562 L -97.015625 -295.70312 L -97.101562 -295.80469 L -97.199219 -295.80078 L -97.191406 -296.03516 L -97.292969 -296.13672 L -97.265625 -296.26172 L -97.519531 -296.27344 z M 222.3125 -237.64453 L 220.625 -236.36328 L 218.69531 -236.36328 L 216.9375 -235.02734 L 215.60938 -233.48047 L 213.91016 -230.53906 L 214.58008 -224.31836 L 213.74609 -220.18164 L 213.74609 -218.00391 L 211.67969 -213.66406 L 213.36328 -208.60742 L 212.5293 -205.37109 L 213.1875 -201.09375 L 214.28125 -200.35547 L 217.20703 -200.35547 L 219.71094 -199.38672 L 221.65625 -197.89062 L 221.64844 -197.69141 L 221.93359 -197.26172 L 221.91406 -197.03906 L 222.15625 -196.75 L 222.32812 -196.71875 L 222.32812 -196.57031 L 222.71875 -196.13672 L 222.71875 -195.97266 L 222.83203 -196.02344 L 223.3125 -195.66016 L 223.42578 -195.66016 L 223.66016 -196.08984 L 224.14062 -196.16016 L 224.4375 -195.85547 L 224.57422 -195.87109 L 224.94922 -196.30859 L 225.82031 -196.30859 L 226.46094 -196.46094 L 226.98828 -196.46094 L 227.24219 -196.26953 L 227.6875 -196.75781 L 228.02344 -196.75781 L 228.41016 -196.46875 L 228.96484 -196.96875 L 229.94141 -196.82031 L 230.14844 -196.55469 L 231.02344 -196.48828 L 232 -196.71484 L 232 -196.83203 L 232.27734 -196.53906 L 232.42578 -196.53906 L 232.60547 -196.76562 L 232.80859 -196.94141 L 233.10156 -196.94141 L 233.49609 -196.53906 L 234.06641 -196.98047 L 234.83203 -196.8125 L 234.95703 -196.92578 L 234.95703 -197.16016 L 235.45703 -197.16016 L 235.45703 -197.58594 L 235.84766 -198.02734 L 236.15625 -197.91406 L 236.26953 -198.48828 L 236.45312 -198.75 L 237.05859 -199.14844 L 237.03125 -199.23828 L 237.15625 -199.42969 L 237.43359 -199.69141 L 238.08984 -199.89453 L 238.10938 -200.15234 L 238.49609 -200.15625 L 238.98828 -200.57812 L 239.24219 -200.55469 L 239.44141 -200.79297 L 239.44141 -200.94922 L 239.97656 -201.44922 L 239.67578 -201.62109 L 239.91406 -201.62109 L 239.91406 -202.09375 L 240.89062 -203.39844 L 240.46875 -204.46875 L 239.59375 -204.69531 L 238.75 -204.69531 L 237.63281 -206.21094 L 237.63281 -206.67188 L 238.00781 -208.09766 L 238.00781 -211.61328 L 238.89844 -215.17188 L 240.85547 -217.28516 L 241.88672 -221.23633 L 240.66016 -222.95508 L 241.0625 -224.41797 L 239.59961 -226.10938 L 236.37891 -226.56641 L 234.2793 -226.56641 L 232.40039 -228.31836 L 232.40039 -229.84766 L 230.73242 -231.23438 L 229.24023 -231.23438 L 227.67188 -232.01562 L 227.60156 -231.98047 L 226.16406 -231.66797 L 225.32031 -232.15625 L 224.91406 -232.53516 L 224.73828 -232.81641 L 224.33594 -234.71484 L 224.33594 -235.02344 L 224.6875 -235.97266 L 223.35938 -237.64453 L 222.3125 -237.64453 z M 170.99219 -225.04688 L 166.1875 -223.46875 L 161.38281 -222.25781 L 159.79688 -219.96875 L 160.37891 -216.01953 L 158.52344 -212.6875 L 158.52344 -210.13672 L 158.98828 -209.42578 L 160.80078 -207.85547 L 160.80078 -203.66016 L 160.64453 -203.54297 L 160.64844 -203.43359 L 160.74609 -203.40625 L 160.57031 -203.28125 L 160.57422 -203.10547 L 160.65234 -203.08203 L 160.65625 -202.68359 L 160.52734 -202.35156 L 160.38281 -202.35938 L 160.39453 -201.71875 L 160.27344 -201.68359 L 160.1875 -201.54297 L 160.19531 -201.1875 L 160.09375 -200.95703 L 159.92578 -200.875 L 159.98828 -200.46875 L 159.90234 -200.23828 L 159.69922 -200.08594 L 159.78906 -200.02344 L 159.71875 -199.98828 L 159.72656 -199.75781 L 159.87891 -199.62891 L 159.64453 -199.625 L 159.53516 -199.55469 L 159.39453 -199.54297 L 159.40234 -199.25 L 159.22656 -199.125 L 159.44922 -198.96875 L 159.46484 -198.69141 L 159.74219 -198.76172 L 159.78125 -198.67578 L 160 -198.68359 L 160.02734 -198.78125 L 160.11719 -198.66406 L 160.28516 -198.83203 L 160.28906 -198.82031 L 161.26562 -196.89062 L 161.26562 -196.35156 L 160.59375 -192.15625 L 160.21094 -190.60156 L 158.03906 -188.25781 L 158.27344 -184.9375 L 157.85156 -183.59375 L 156.19531 -182.625 L 155.89844 -181.1875 L 156.47656 -179.53906 L 163.09375 -172.96094 L 164.85156 -168.75 L 172.39844 -165.53125 L 176.125 -160.61719 L 183.91406 -157.38281 L 185.92188 -159.00781 L 191.42969 -154.125 L 197.25781 -148.21875 L 202.26953 -145.72266 L 205.14453 -142.0625 L 211.5 -142.0625 L 214.98438 -140.5 L 220.49219 -140.92969 L 227.27344 -137.16406 L 234.07812 -139 L 236.07031 -141.5 L 240.375 -145.8125 L 241.32812 -146.38281 L 241.77344 -146.53906 L 242.35938 -146.53906 L 247.59375 -145.75 L 249.04688 -145.33594 L 251.50781 -145.33594 L 251.89844 -145.67188 L 256.91406 -148.34375 L 259.17969 -149.35156 L 260.44531 -149.19531 L 262.21094 -147.89062 L 263.0625 -146.96094 L 265.375 -140.01172 L 263.3125 -130.53125 L 264.45312 -125.02539 L 269.14844 -120.59961 L 275.75 -119.19727 L 277.69336 -119.19727 C 277.69336 -119.19727 282.62829 -126.46228 282.65039 -126.48438 C 282.67249 -126.50647 284.62109 -135.73633 284.62109 -135.73633 L 280.61719 -141.17188 L 280.61719 -146.71875 L 279.95898 -147.80664 L 277.42969 -154.35938 L 278.62695 -157.21484 L 285.30664 -161.96094 L 288.01367 -163.30273 L 292.72656 -169.83203 L 292.72656 -180.53125 L 288.25781 -184.77344 L 283.60938 -182.88281 L 277.03125 -186.35156 L 267.21094 -184.42188 L 266.71875 -183.45312 L 265.53125 -181.75 L 264.90625 -181.53906 L 263.5625 -181.63281 L 262.97656 -181.83594 L 260.96094 -183.02344 L 257.53125 -185.53906 L 251.17969 -184.52344 L 246.49219 -187.22656 L 238.42969 -185.57812 L 233.75781 -187.85156 L 227.96094 -185.5 L 222.04688 -185.5 L 214.8125 -187.75781 L 209.26562 -193.28125 L 205.39844 -199.01562 L 204.17188 -201.5 L 200.03125 -204.13281 L 197.77344 -210.28906 L 196.26562 -211.02344 L 194.22656 -210.42188 L 193.64062 -210.42188 L 192.84375 -210.6875 L 192.41406 -210.94531 L 189.97656 -214.10938 L 189.83594 -214.38281 L 186.21875 -217.11719 L 176.75 -220.625 L 174.78125 -223.63281 L 170.99219 -225.04688 z M 50.050781 -70.929688 L 46.398438 -69.429688 L 45.382812 -67.578125 L 42.679688 -66.578125 L 39.773438 -66.796875 L 37.960938 -67.671875 L 32.8125 -66.367188 L 29.734375 -63.570312 L 30.34375 -61.570312 L 35.390625 -54.664062 L 39.109375 -50.570312 L 42.765625 -51.164062 L 44.296875 -49.789062 L 45.195312 -46.992188 L 48.207031 -43.503906 L 48.550781 -42.554688 L 47.550781 -41.869141 L 47.875 -41.396484 L 47.347656 -41.099609 L 46.65625 -42.109375 L 46.140625 -41.757812 L 47.201172 -40.210938 L 47.65625 -40.521484 L 52.035156 -32.699219 L 51.027344 -31.494141 L 50.458984 -32.0625 L 48.667969 -35.863281 L 47.939453 -36.4375 L 47.033203 -36.238281 L 46.25 -35.509766 L 46.25 -33.167969 L 47.210938 -31.730469 L 50.380859 -28.439453 L 55.75 -20.130859 L 58.445312 -17.695312 L 61.1875 -12.59375 L 62.189453 -10.214844 L 62.082031 -9.4960938 L 62.490234 -9.4960938 L 62.492188 -9.4960938 L 62.591797 -9.2539062 L 62.296875 -9.125 L 62.582031 -8.5820312 L 62.832031 -8.6875 L 62.861328 -8.6171875 L 62.707031 -8.4414062 L 62.707031 -8.03125 L 63.15625 -7.8203125 L 63.15625 -7.7109375 L 63.425781 -7.546875 L 63.578125 -7.5585938 L 63.960938 -7.1914062 L 64.175781 -7.4453125 L 64.449219 -7.2773438 L 64.375 -6.890625 L 64.722656 -6.828125 L 65.007812 -6.9023438 L 65.472656 -7.1054688 L 65.789062 -7.09375 L 65.75 -7.2851562 L 66.25 -7.2851562 L 66.25 -7.6992188 L 66.382812 -7.6992188 L 66.128906 -8.2421875 L 66.041016 -8.1992188 L 65.976562 -8.2929688 L 66.148438 -8.5585938 L 66.53125 -8.8554688 L 66.429688 -8.953125 L 66.578125 -8.9453125 L 66.917969 -9.3164062 L 66.601562 -9.7148438 L 66.664062 -9.8984375 L 67.285156 -9.6757812 L 67.417969 -9.9453125 L 67.355469 -11.003906 L 67.179688 -11.0625 L 67.179688 -11.310547 L 67.185547 -11.332031 L 67.324219 -11.570312 L 67.238281 -11.572266 L 67.4375 -12.453125 L 68.164062 -15.484375 L 70.175781 -16.910156 L 71.173828 -17.103516 L 73.097656 -12.689453 L 73.109375 -12.457031 L 73.1875 -12.375 L 72.976562 -12.121094 L 73.023438 -11.953125 L 73.214844 -11.953125 L 73.308594 -12.035156 L 73.488281 -11.546875 L 73.769531 -11.667969 L 73.769531 -11.386719 L 73.984375 -11.273438 L 73.628906 -10.976562 L 74.058594 -10.808594 L 73.957031 -10.667969 L 74.3125 -10.695312 L 74.328125 -10.535156 L 74.035156 -10.410156 L 74.300781 -9.9335938 L 74.328125 -9.6523438 L 74.601562 -9.7539062 L 74.589844 -9.1914062 L 74.65625 -9.2890625 L 74.816406 -9.265625 L 75.546875 -9.8398438 L 75.367188 -10.292969 L 75.695312 -10.773438 L 75.921875 -10.675781 L 75.921875 -11.339844 L 76.117188 -11.644531 L 75.8125 -11.59375 L 76.195312 -12.011719 L 75.914062 -12.072266 L 75.933594 -12.275391 L 76.128906 -12.410156 L 75.966797 -12.640625 L 76.125 -14.351562 L 78.091797 -15.578125 L 78.445312 -16.208984 L 80.322266 -18.462891 L 84.246094 -20.716797 L 87.449219 -22.119141 L 87.931641 -22.261719 L 88.412109 -22.224609 L 88.425781 -22.40625 L 89.736328 -22.792969 L 92.910156 -24.835938 L 93.382812 -24.738281 L 94.074219 -25.574219 L 94.867188 -26.023438 L 96.765625 -26.367188 L 96.867188 -27.1875 L 97.414062 -27.46875 L 98.726562 -30.054688 L 97.0625 -35.21875 L 95.859375 -37.601562 L 95.34375 -40.171875 L 96.101562 -44.8125 L 97.046875 -46.796875 L 99.078125 -49.25 L 96.835938 -50.492188 L 94.335938 -53.929688 L 93.0625 -58.75 L 91.28125 -61.140625 L 90.902344 -62.949219 L 90.375 -63.589844 L 90.460938 -64.113281 L 90.253906 -64.085938 L 90.058594 -64.195312 L 90.058594 -64.5 L 90.511719 -64.589844 L 90.359375 -65.191406 L 90.300781 -65.105469 L 90.0625 -65.105469 L 89.96875 -65.207031 L 89.96875 -65.414062 L 90.183594 -65.691406 L 89.8125 -66.066406 L 89.738281 -66.039062 L 89.738281 -66.226562 L 89.640625 -66.242188 L 89.558594 -66.75 L 89.34375 -66.445312 L 88.589844 -66.445312 L 88.238281 -65.925781 L 88.539062 -65.925781 L 88.652344 -65.824219 L 88.757812 -65.566406 L 88.535156 -65.664062 L 88.039062 -65.394531 L 88.140625 -65.355469 L 88.140625 -65.253906 L 88.046875 -65.253906 L 87.820312 -65.042969 L 88.0625 -64.699219 L 87.953125 -64.609375 L 88.09375 -64.539062 L 87.988281 -64.511719 L 87.976562 -64.324219 L 87.615234 -64.191406 L 87.796875 -63.677734 L 87.796875 -63.375 L 87.59375 -62.910156 L 87.59375 -62.335938 L 86.851562 -58.539062 L 82.28125 -51.503906 L 79.929688 -49.730469 L 78.296875 -49.257812 L 76.109375 -49.710938 L 75.472656 -50.378906 L 75.316406 -50.925781 L 75.648438 -51.988281 L 75.253906 -52.628906 L 74.414062 -52.628906 L 73.367188 -51.925781 L 73.207031 -51.890625 L 73.042969 -52 L 72.351562 -51.25 L 71.5625 -49.867188 L 70.640625 -48.789062 L 69.710938 -47.925781 L 68.582031 -47.234375 L 68.582031 -46.421875 L 69.613281 -44.847656 L 69.335938 -43.992188 L 67.648438 -43.507812 L 65.996094 -43.90625 L 63.144531 -45.058594 L 61.335938 -46.652344 L 60.703125 -48.621094 L 61.255859 -49.945312 L 61.433594 -50.164062 L 61.847656 -52.6875 L 61.226562 -53.761719 L 60.507812 -54.117188 L 59.222656 -53.96875 L 58.414062 -54.46875 L 56.601562 -57.320312 L 56.148438 -58.78125 L 56.148438 -59.050781 L 57.390625 -60.5625 L 56.980469 -63.105469 L 56.179688 -63.710938 L 54.984375 -63.59375 L 53.195312 -64.269531 L 52.394531 -65.101562 L 51.953125 -66.808594 L 51.478516 -68.591797 L 51.445312 -68.929688 L 50.050781 -70.929688 z M 377 -62.484375 L 374.88281 -62.226562 L 370.16016 -58.876953 L 367.36914 -58.033203 L 367.30469 -58.214844 L 366.86719 -57.880859 L 357.67383 -55.099609 L 353.87305 -50.09375 L 355.34375 -45.210938 L 362.38086 -39.089844 L 366.87891 -33.035156 L 373.03125 -36.625 L 376.83203 -41.873047 L 380.69922 -48.314453 L 382.63281 -55.867188 L 380.3125 -58.828125 L 377 -62.484375 z M 445.38867 -62.259766 L 440.50586 -61.330078 L 431.81055 -55.054688 L 427.60742 -45.146484 L 422.23242 -37.878906 L 421.23242 -34.298828 L 421.9668 -30.125 L 424.12305 -26.125 L 426.08398 -24.771484 L 426.41016 -24.771484 L 435.0332 -22.113281 L 438.68555 -19.115234 L 438.58398 -16.183594 L 435.74023 -13.222656 L 431.22461 -10.017578 L 425.86523 -6.6035156 L 416.68555 -10.441406 L 407.60547 -20.970703 L 402.19141 -22.03125 L 400.60156 -22.804688 L 397.48438 -24.970703 L 395.5293 -27.777344 L 395.23047 -28.363281 L 393.7168 -29.634766 L 389.65234 -27.589844 L 388.50195 -25.964844 L 386.41406 -23.755859 L 385.44141 -23.113281 L 382.72461 -22.140625 L 378.48242 -21.400391 L 366.40625 -15.542969 L 361.80859 -7.640625 L 361.80859 -5.7949219 L 363.41211 -1.1328125 L 366.49414 1.3886719 L 367.11328 1.5859375 L 373.73047 6.0507812 L 376.26172 11.744141 L 376.34961 19.546875 L 376.12891 20.363281 L 377.34375 26.763672 L 378.76953 29.117188 L 379.50977 29.458984 L 382.42578 31.769531 L 383.45312 33.814453 L 383.38672 37.361328 L 385.66406 40.753906 L 385.82227 40.929688 L 387.35742 41.441406 L 388.94336 41.441406 L 396.18164 39.251953 L 402.41211 35.482422 L 405.36328 35.162109 L 417.71484 35.283203 L 425.15039 37.59375 L 431.9668 41.052734 L 434.65234 42.865234 L 435.53711 43.683594 L 435.02734 45.185547 L 435.83398 46.744141 L 440.80664 49.263672 L 453.29102 47.904297 L 460.52734 48.701172 L 464.81445 47.982422 L 466.32227 46.560547 L 466.32227 46.162109 L 466.16211 45.775391 L 465.99023 45.720703 L 465.45508 45.173828 L 465.52539 44.310547 L 466.99023 42.839844 L 467.10742 42.175781 L 459.87305 35.212891 L 456.80273 29.931641 L 452.18555 26.8125 L 441.36133 17.007812 L 441.35938 17.005859 L 440.94727 16.369141 L 440.85352 16.052734 L 440.61914 16.251953 L 440.5293 16.058594 L 440.5293 15.460938 L 440.3418 15.654297 L 439.65625 14.177734 L 439.91797 14.054688 L 439.69141 13.714844 L 440.125 13.277344 L 439.68359 12.789062 L 439.34375 13.076172 L 439.58398 10.535156 L 440.2168 9.5566406 L 440.01367 9.1503906 L 439.39648 8.5761719 L 439.08789 7.8496094 L 438.7832 7.4003906 L 438.16602 7.2519531 L 437.57617 7.5175781 L 436.55664 7.4316406 L 436.21289 6.8886719 L 435.05273 5.8691406 L 434.58789 5.4472656 L 434.3457 4.5527344 L 434.58398 4.1835938 L 434.82812 4.2890625 L 435.02344 3.6171875 L 434.65039 3.5058594 L 434.63086 3.4453125 L 434.65625 2.9179688 L 434.47461 2.9179688 L 434.30469 2.3496094 L 434.29297 2.2832031 L 434.33203 2.171875 L 434.48438 2.1757812 L 434.28516 1.7851562 L 434.65625 1.484375 L 434.26562 1.1054688 L 434.11914 1.2265625 L 434.10547 1.1445312 L 434.33008 0.80078125 L 435 1.0546875 L 434.98438 0.82421875 L 434.53906 0.64648438 L 434.8457 0.515625 L 434.85938 0.5234375 L 434.86719 0.6484375 L 435.5 1.1992188 L 435.61133 0.95898438 L 435.70117 1.0117188 L 436.00586 1.6855469 L 436.15039 1.9296875 L 436.64062 2.1621094 L 437.28125 2.1621094 L 438.48047 3.0019531 L 439.04492 3.8183594 L 438.16016 6.3007812 L 438.43164 6.5664062 L 439.5918 7.0527344 L 439.82227 8.1464844 L 440.86133 9.3066406 L 441.02148 9.5117188 L 441.42773 9.5097656 L 452.11523 5.0722656 L 464.11523 3.9316406 L 471.32812 -1.0546875 L 471.32812 -1.578125 L 466.55273 -12.042969 L 456.12305 -21.638672 L 452.73828 -25.992188 L 450.54492 -34.751953 L 451.38867 -41.191406 L 452.18555 -45.083984 L 450.82617 -54.304688 L 448.43555 -60.212891 L 445.38867 -62.259766 z M -436.31445 -47.314453 L -437.93555 -44.796875 L -438.20703 -44.519531 L -438.31055 -44.291016 L -439.07422 -44.017578 L -439.30664 -43.128906 L -441.88281 -40.482422 L -441.88281 -32.292969 L -440.85938 -30.648438 L -439.14648 -25.582031 L -439.85547 -21.871094 L -439.64453 -21.625 L -438.76562 -21.484375 L -433.24219 -21.1875 L -428.85156 -20.710938 L -425.02344 -20.076172 L -424.00781 -20.076172 L -422.00586 -20.40625 L -421.72266 -20.210938 L -421.34375 -20.425781 L -421.21094 -20.457031 L -421.09766 -20.339844 L -420.99219 -20.5 L -420.55859 -20.519531 L -420.45312 -20.40625 L -420.32031 -20.574219 L -420.16406 -20.480469 L -420.16406 -20.625 L -419.92578 -20.691406 L -419.71094 -20.605469 L -419.48047 -20.859375 L -419.58203 -20.945312 L -419.48047 -21.050781 L -419.26562 -21.054688 L -419.24219 -21.574219 L -418.96094 -21.636719 L -418.9375 -21.726562 L -419.03125 -21.777344 L -418.8125 -22.203125 L -418.90234 -22.304688 L -418.82031 -22.320312 L -418.81641 -22.492188 L -418.90234 -22.53125 L -418.90234 -22.552734 L -418.76953 -22.640625 L -418.76953 -22.902344 L -418.90234 -22.902344 L -418.90234 -22.921875 L -418.82422 -22.980469 L -418.82422 -23.802734 L -418.74609 -23.867188 L -418.74609 -24.082031 L -418.82422 -24.126953 L -418.82422 -24.570312 L -418.79297 -24.617188 L -418.82422 -24.6875 L -418.82422 -24.820312 L -418.90234 -24.949219 L -418.80078 -24.972656 L -418.83203 -25.128906 L -418.73047 -25.21875 L -418.82812 -25.363281 L -418.79297 -25.40625 L -418.8125 -25.457031 L -418.8125 -25.949219 L -418.90234 -25.962891 L -418.90234 -26.001953 L -418.87109 -26.097656 L -418.83594 -26.101562 L -418.80859 -26.359375 L -418.90234 -26.363281 L -418.90234 -26.376953 L -418.75391 -26.628906 L -418.80859 -26.882812 L -418.90234 -26.929688 L -418.90234 -30.476562 L -419.42969 -31.414062 L -419.42969 -32.476562 L -421.37891 -40.46875 L -424.26953 -41.830078 L -425.61719 -41.830078 L -431.48828 -45.816406 L -433.19141 -46.693359 L -434.32617 -47.314453 L -436.31445 -47.314453 z M -428.21484 -17.886719 L -430.9375 -16.363281 L -433.01367 -13.84375 L -435.6875 -6.1210938 L -435.6875 -4.1210938 L -434.20703 -2.2871094 L -430.19922 -1.3242188 L -428.32812 -0.359375 L -427.21484 0.625 L -426.83984 1.2734375 L -426.82031 1.5195312 L -426.76172 1.5351562 L -426.76172 1.84375 L -426.50391 2 L -426.26172 1.8164062 L -426.36328 1.7148438 L -426.27344 1.6953125 L -426.28516 1.46875 L -426.20703 1.4140625 L -426.32812 1.3359375 L -426.16016 1.2851562 L -426.22656 1 L -426.01562 0.77734375 L -426.19531 0.8515625 L -426.00391 0.59375 L -426.17578 0.484375 L -426.03906 0.36328125 L -425.95312 0.0703125 L -426.02344 -0.00390625 L -425.83984 -0.90625 L -425.83984 -1.3476562 L -424.01562 -7.5703125 L -421.90625 -9.3359375 L -421.15625 -10.429688 L -421.86719 -14.765625 L -425.26367 -17.886719 L -428.21484 -17.886719 z M 374.33008 34.900391 L 373.76562 35.337891 L 372.83398 37.742188 L 371.72266 38.34375 L 370.82812 37.890625 L 370.48438 38.630859 L 370.89453 39.796875 L 372.22461 41.105469 L 376.66602 41.996094 L 377.46875 41.332031 L 378.72656 41.189453 L 380.60547 41.552734 L 381.59961 40.972656 L 380.40039 40.222656 L 379.10938 40.0625 L 376.83203 38.210938 L 375.63281 35.894531 L 374.33008 34.900391 z M -186.85938 103.25 L -189.75 106.75781 L -194.51562 106.75781 L -198.16016 103.66797 L -211.58594 109.05469 L -216.45312 120.21094 L -215.38281 130.35156 L -216.53125 135.59375 L -210.30469 145.32812 L -209.63281 147.20312 L -209.8125 148.72656 L -210.35938 150.60156 L -209.21484 152.05078 L -207.72461 152.21484 L -206.2207 153.49805 L -204.58594 155.69531 L -199.53711 153.43164 L -196.25586 151.45312 L -193.32812 151.65234 L -189.0293 151.36523 L -185.48242 149.69727 L -180.23438 146.50391 L -178.94141 146.9668 L -177.14062 147.19922 L -171.94922 143.45508 L -171.51758 141.92969 L -169.45117 136.53711 L -165.87109 131.57617 L -166.03711 125.2793 L -163.12109 123.25781 L -163.42969 122.30664 L -165.00977 115.53516 L -164.68945 110.83984 L -170.77734 106.28711 L -172.3457 106.49609 L -178.875 106.67969 L -186 103.6875 L -186.85938 103.25 z M -38.566406 106.70703 L -39.332031 111.60156 L -40.923828 111.83398 L -45.884766 113.04883 L -48.017578 118.83789 L -48.945312 119.59961 L -50.425781 126.81445 L -43.166016 128.42773 L -41.951172 131.8418 L -39.554688 131.3125 L -40.072266 129.48828 L -34.935547 127.41211 L -34.261719 127.86523 L -28.361328 128.87109 L -27.898438 128.50586 L -22.041016 129.16797 L -21.544922 129.63281 L -15.345703 130.26172 L -14.761719 125.74414 L -12.949219 125.32422 L -13.490234 123.3457 L -12.992188 117.04883 L -11.236328 116.10938 L -15.335938 113.93164 L -19.820312 109.00586 L -26.046875 107.42969 L -32.179688 107.27344 L -32.46875 107.08594 L -38.566406 106.70703 z M 258.91406 118.27344 L 256.79297 118.75391 L 254.88281 119.92578 L 251.90625 119.32812 L 251.67578 119.32812 L 250.01172 121.44531 L 248.15234 122.56055 L 247.64648 122.77148 L 248.00977 124.16406 L 251.22461 126.95312 L 251.87891 126.95312 L 254.29297 126.08008 L 255.59961 124.43945 L 256.31641 123.95312 L 256.92188 124.20898 L 257.29883 124.60547 L 257.66602 125.4375 L 257.54102 126.41406 L 254.99414 128.64844 L 253.69141 129.48438 L 252.61328 131.74414 L 251.62695 132.55273 L 249.58594 133.94141 L 249.58594 134.38281 L 249.94336 134.7793 L 251.54688 135.36719 L 257.17578 135.94531 L 258.75195 135.49219 L 259.71094 135.49219 L 262.69531 137.00781 L 263.33008 137.00781 L 264.2207 136.45312 L 265.5332 134.17188 L 265.92188 130.78906 L 265.92188 127.6543 L 265.00195 125.76172 L 265.25 121.98438 L 263.9375 119.38281 L 258.91406 118.27344 z M -85.65625 123.26758 L -90.892578 128.0918 L -92.072266 127.63867 L -96.244141 127.4043 L -96.736328 127.70898 L -100.2832 128.54492 L -102.31445 131.61328 L -102.88867 131.85938 L -103.33398 137.21484 L -103.62109 138.5625 L -104.87109 142.28711 L -104.75977 144.70703 L -106.07422 147.51367 L -104.22852 153.61523 L -104.44336 159.31641 L -98.203125 170.68555 L -96.125 173.32617 L -96.583984 176.48633 L -98.417969 178.38281 L -99.230469 179.65234 L -100.69922 183.33398 L -101.47266 183.64844 L -101.87695 188.70508 L -102.30664 190.21289 L -104.79883 193.41211 L -104.58789 194.0918 L -105.42188 198.72266 L -105.42188 200.76172 L -105.83789 204.49219 L -104.00195 208.69141 L -103.47852 210.69141 L -100.86523 216.94727 L -96.556641 218.13477 L -96.826172 220.83203 L -97.792969 223.07617 L -97.949219 224.2793 L -96.853516 224.2793 L -96.390625 229.04297 L -92.710938 229.57422 L -84.916016 241.91406 L -73.248047 248.90039 L -70.470703 254.21484 L -69.490234 255.875 L -69.761719 257.21484 L -70.322266 257.56445 L -71.685547 258.74023 L -71.685547 260.6543 L -54.685547 272.96484 L -48.181641 276.72266 L -43.298828 279.95703 L -40.166016 284.56055 L -37.001953 289.75 L -32.572266 293.70312 L -27.978516 298.29883 L -28.458984 301.72461 L -24.298828 314.76367 L -18.824219 313.98242 L -12.847656 315.44141 L -9.8417969 314.02148 L -10.460938 311.95312 L -9.4882812 306.01953 L -8.8359375 302.72656 L -9.9511719 298.85742 L -15.244141 295.23242 L -21.298828 290.61328 L -22.800781 282.99805 L -24.160156 273.60352 L -21.443359 265.41406 L -12.029297 251.52344 L -12.648438 248.70508 L -20.685547 243.61914 L -24.626953 234.91211 L -19.353516 225.9707 L -17.408203 226.01758 L -15.564453 226.35742 L -14.503906 225.24414 L -14.939453 223.88281 L -14.482422 222.5332 L -9.0019531 210.53125 L -7.3007812 199.06055 L -10.597656 190.26758 L -20.826172 187.77148 L -26.25 191.44922 L -31.181641 189.70508 L -38.113281 191.37891 L -39.695312 193.82227 L -39.964844 194.11523 L -50.947266 199.20312 L -51.880859 199.06055 L -54.908203 195.79883 L -60.892578 195.13672 L -65.675781 193.4668 L -71.041016 191.30078 L -74.060547 177.32227 L -74.089844 176.05273 L -70.576172 174.53711 L -63.548828 164.23633 L -64.056641 157.29492 L -63.791016 156.41211 L -63.931641 154.79492 L -61.361328 152.42773 L -59.986328 150.24023 L -60.298828 146.43359 L -59.267578 144.80078 L -60.240234 139.72852 L -62.162109 137.96484 L -62.814453 135.40625 L -71.830078 125.32617 L -85.65625 123.26758 z M -112.91797 129.31641 L -113.64062 130.8125 L -119.57812 129.89062 L -129.03125 133.1875 L -134.94141 141.75195 L -138.27734 150.51367 L -137.20703 151.61328 L -136.33984 152.2207 L -136.94727 154.17188 L -139.67578 155.2207 L -141.24414 154.34766 L -143.13477 154.66797 L -143.9082 155.99414 L -143.83008 156.72266 L -143.35547 157.98242 L -144.34961 159.12109 L -148.37109 167.08789 L -153.85156 171.25195 L -158.25977 182.33398 L -162.33984 188.35938 L -164.07812 189.0625 L -164.54688 190.71875 L -163.85938 191.8125 L -161.95312 193.23438 L -157.0625 203.10156 L -156.71094 205.21875 L -156.78125 207.125 L -156.73438 208.86133 L -155.57422 209.66797 L -154.86719 209.91211 L -154.05078 210.68555 L -148.93359 218.7832 L -148.93359 223.76562 L -153.63086 228.9707 L -156.32617 230.49414 L -158.26953 229.64453 L -158.62305 227.64453 L -159.74023 226.27344 L -160.25977 226.27344 L -162.31445 227.78711 L -163.87109 230.70508 L -164.65625 232.94727 L -169.9375 241.00195 L -173.81641 245.25586 L -177.11914 244.2832 L -184.32227 251.32031 L -192.24414 253.61914 L -200.77344 249.29883 L -208.4082 240.57031 L -212.1875 233.26758 L -216.33008 230.9707 L -218.08789 232.11914 L -219.77734 232.32812 L -220.81641 233.8418 L -219.10352 235.55469 L -219.75586 241.94141 L -224.17578 251.26562 L -224.17578 254.60352 L -221.33594 263.04297 L -210.26562 271.19727 L -205.25977 274.01562 L -200.56445 277.23047 L -199.38281 279.25195 L -200.0332 280.95312 L -204.27734 286.6543 L -207.38086 295.75781 L -203.51367 303.03906 L -195.86914 307.18359 L -195.45898 307.16016 L -194.52148 309.12695 L -192.75391 309.38086 L -190.59766 308.90625 L -189.86914 308.04492 L -186.47656 309.38086 L -183.79297 308.85156 L -182.47852 309.54688 L -181.21875 309.11523 L -177.50586 309.02734 L -174.55664 309.14844 L -173.5957 308.93945 L -171.47266 303.76953 L -173.37305 297.70312 L -176.0918 294.8418 L -176.89844 292.57617 L -178.39062 290.14648 L -176.91992 287.74805 L -175.91406 285.25195 L -173.23047 284.21289 L -171.50586 282.21289 L -169.56641 281.30078 L -166.83398 279.33008 L -166.00391 277.30664 L -164.46875 279.25195 L -164.58008 281.51758 L -165.44141 282.95312 L -167.45117 286.00195 L -168.74414 288.4668 L -170.51172 290.23438 L -170.51172 294.57617 L -167.5293 299.35938 L -166.78906 299.82422 L -163.42969 300.57617 L -161.4082 298.74219 L -160.95508 297.07227 L -154.91211 290.92969 L -151.1543 284.29102 L -148.74609 280.7207 L -145.39844 277.63867 L -138.60352 272.20312 L -130.12891 261.58594 L -128.42773 254.71289 L -131.99609 249.0332 L -132.30664 247.39844 L -130.70508 238.39453 L -126.80469 226.33008 L -121.43555 219.79883 L -119.2793 220.21875 L -119.07031 221.85547 L -114.12109 222.15234 L -109.54688 216.17578 L -109.54688 214.14258 L -107.9668 212.30859 L -107.08203 209.78906 L -109.12695 206.85156 L -109.20312 203.45898 L -108.94922 202.55273 L -107.25977 198.38672 L -107.92188 196.15625 L -106.07617 193.00781 L -105.7793 192.03516 L -107.13867 187.00781 L -105.36914 184.5 L -102.90625 182.42188 L -102.2207 182.28906 L -101.01758 177.56055 L -100.79492 176.73242 L -100.1875 172.11328 L -101.42578 169.68359 L -102.77344 167.17578 L -103.50195 166.125 L -104.2207 165.13086 L -106.4082 160.72266 L -106.89453 159.64062 L -107.36914 158.46875 L -109.61719 152.47656 L -109.67969 152.14844 L -109.25781 148.88281 L -108.9375 146.67188 L -109.01562 145.03125 L -108.21875 141.23438 L -108.92969 136.89844 L -108.5625 135.42188 L -108.63281 130.61719 L -112.91797 129.31641 z M -456.55859 237.96484 L -457.64062 238.06641 L -456.70703 238.58594 L -456.55859 237.96484 z M -469.52734 241.66797 L -469.94141 242.60156 L -469.26953 242.76562 L -469.35156 242.49609 L -468.71094 242.25391 L -468.76172 242.04688 L -469.39453 242.00391 L -469.52734 241.66797 z M -443.94727 244.38086 L -444.70898 245.0332 L -444.16211 245.4082 L -444.05078 245.19531 L -443.46484 245.20703 L -443.36133 245.00195 L -444.00195 244.69531 L -443.92969 244.64258 L -443.94727 244.38086 z M -477.73047 249.57031 L -477.34766 250.22656 L -478.13281 250.65625 L -477.16797 250.66797 L -476.79688 249.86719 L -477.73047 249.57031 z M -466.17578 252.6875 L -466.73438 253.40625 L -466.64453 253.66797 L -465.91797 253.57031 L -466.17578 252.6875 z M -488.07031 254.05078 L -487.85547 255.01953 L -486.87891 255.15625 L -486.87891 254.30078 L -487.14453 254.30078 L -487.41797 254.67188 L -488.07031 254.05078 z M -442.14844 255.01953 L -443.09375 255.14453 L -442.83594 255.71484 L -443.0625 255.83789 L -442.99609 256.00781 L -442.37891 256.21875 L -442.05859 255.90234 L -442.41016 255.46875 L -442.14844 255.01953 z M -473.34766 257.09375 L -473.87109 257.22656 L -474.36719 259.30859 L -475.51172 259.80078 L -477.97266 258.85547 L -479.35156 259.02344 L -479.78125 260.13672 L -477.32812 261.22656 L -477.69922 261.67969 L -477.70312 262.13672 L -478.22266 262.38867 L -478.36328 262.53906 L -478.41797 263.72656 L -479.85547 264.14453 L -479.61719 266.52344 L -480.1875 266.91406 L -480.01562 267.78906 L -481.95312 267.5 L -482.05078 268.41797 L -480.17188 269.125 L -479.44922 270.11719 L -479.85547 271.125 L -481.12109 272.41797 L -480.6875 273.08984 L -479.17578 272.24609 L -479.01172 272.81641 L -478.31641 272.79688 L -478.10547 272.96484 L -478.00781 273.41797 L -477.44531 273.26172 L -477.30469 273.47266 L -477.3125 273.97266 L -476.875 274.29688 L -476.90234 274.71094 L -476.37891 275.09766 L -477.02344 279.125 L -475.43359 280.22266 L -474.08984 279.81445 L -473.38672 278.85547 L -468.61328 278.25781 L -464.75 281.12891 L -461.42969 279.98438 L -457.54688 281.49609 L -455.62891 279.06641 L -455.50781 279.29688 L -455.33203 279.35156 L -455.375 279.53906 L -455.1875 279.63281 L -455.14844 279.53906 L -454.75391 279.8125 L -454.80859 279.61719 L -454.42969 279.73047 L -454.45312 279.83203 L -454.26172 279.99609 L -453.76953 280.08203 L -453.92969 280.16406 L -453.75 280.41016 L -453.91797 280.75391 L -454.16016 280.78906 L -454.35547 280.92188 L -454.38281 281.04297 L -454.4375 280.92969 L -454.75781 280.92188 L -454.75 281.05469 L -455.14844 280.86719 L -455.84766 281.41406 L -455.07422 282.375 L -452.81641 282.81641 L -450.23242 285.01367 L -448.95117 284.66797 L -447.41211 282.99023 L -446.86133 278.63281 L -452.64062 278.76758 L -453.43359 278.36133 L -451.41406 272.99414 L -450.70117 269.48438 L -448.26562 267.05078 L -449.50781 265.81445 L -455.27734 260.74219 L -457.63672 260.76172 L -457.70703 262.02734 L -458.85156 262.40234 L -458.69922 262.22266 L -458.70312 261.64453 L -459.39453 261.57422 L -459.76562 261.63281 L -459.66797 261.38672 L -459.80078 261.38672 L -460.02734 260.96484 L -460.32031 260.90234 L -460.27344 260.63672 L -460.70312 260.27344 L -460.78125 259.96484 L -461.17969 260.07422 L -461.37109 259.82422 L -461.58984 260.05859 L -461.71094 260.03516 L -461.6875 259.79297 L -462.11719 259.70312 L -462.26953 260.12891 L -462.05469 260.20703 L -462.14844 260.28125 L -462.41797 260.14844 L -462.4375 259.92188 L -462.80078 259.95312 L -462.74219 260.39844 L -462.91016 260.38281 L -462.74219 260.93359 L -462.39453 261.33203 L -462.05469 261.53906 L -462.25 261.60547 L -462.17578 261.98047 L -462.46094 261.78125 L -462.58984 262.02734 L -462.9375 262.05859 L -463.05469 262.29297 L -463.3125 262.25781 L -463.48438 262.31641 L -463.5 262.44141 L -463.6875 262.4375 L -463.59961 262.37695 L -463.60938 262.15625 L -463.875 262.16016 L -464.05273 261.89258 L -464.21875 261.80859 L -464.49219 262.20117 L -464.42188 262.39062 L -464.21094 262.38281 L -464.25 262.52734 L -467.49609 261.09375 L -469.3125 258.33594 L -471.25391 257.64453 L -473.34766 257.09375 z M -479.14062 261.49219 L -479.3125 262.15234 L -479.10547 262.68359 L -478.13281 261.58984 L -479.14062 261.49219 z M -481.70703 262.62109 L -482.34375 262.86719 L -481.68359 263.62891 L -481.52344 263.51953 L -481.70703 262.62109 z M -481.64062 264.53906 L -482.16797 264.97656 L -480.19531 266.25 L -480.40625 264.97266 L -481.64062 264.53906 z M -447.46875 268.72266 L -447.84375 269.57812 L -447.73047 269.69531 L -447.17969 269.35156 L -446.98047 269.16406 L -447.46875 268.72266 z M -487.44531 268.90625 L -487.57031 269.08594 L -487.57031 269.625 L -486.98828 269.625 L -486.76172 269.50391 L -487.10938 268.90625 L -487.44531 268.90625 z M -478.67188 274.05469 L -479.23438 274.59375 L -478.58594 275.08594 L -478.14062 274.58594 L -478.14062 274.05469 L -478.67188 274.05469 z M -484.94531 274.76562 L -485.30078 275.06641 L -485.51562 274.94922 L -485.51562 275.38672 L -485.33594 275.70312 L -485.125 275.48438 L -484.62891 275.48438 L -484.48047 275.34375 L -484.94531 274.76562 z M 259.16797 278.00391 L 262.19531 284.30273 L 262.19531 287.68359 L 257.59961 296.18359 L 256.19531 297.21094 L 245.8418 299.52539 L 238.63867 300.75195 L 217.99805 311.22461 L 203.86523 325.71289 L 203.86523 326.04883 L 201.16992 337.79492 L 193.4082 343.51758 L 190.67773 344.11523 L 185.50781 341.57227 L 183.1875 340.0918 L 180.27148 340.0918 L 172.17188 346.07031 L 162.39453 342.0918 L 160.95703 342.0918 L 162.33984 348.22656 L 173.41016 368.82617 L 177.1875 380.78516 L 173.43164 391.34961 L 170.59961 398.04688 L 163.20703 401.46289 L 151.91406 420.54297 L 131.59961 438.66016 L 128.28711 443.6543 L 124.4043 448.91211 L 119.58398 451.69531 L 117.33789 452.82812 L 115.18164 460.80273 L 115.18164 461.39258 L 115.36914 461.39258 L 117.42578 460.95508 L 125.13867 455.24023 L 138.03125 449.19531 L 138.80469 447.58203 L 140.47461 444.93945 L 145.47852 442.24414 L 153.43359 438.55273 L 160.18359 428.9043 L 173.46484 420.57031 L 190.33594 415.26562 L 201.62695 406.29297 L 206.76562 405.49609 L 218.03516 409.28711 L 238.61719 411.71875 L 251.91016 409.32031 L 264.80273 412.53711 L 269.73047 406.00391 L 271.06836 398.11328 L 272.51562 393.93555 L 278.13867 385.83984 L 286.74805 379.76758 L 293.08398 380.19922 L 297.63867 380.19922 L 304.69922 375.1582 L 307.18555 369.76562 L 311.40625 363.00195 L 317.68164 358.2168 L 321.70898 358.36523 L 325.7793 362.11719 L 329.02734 366.58203 L 330.28711 362.9082 L 330.28711 357.18359 L 328.02344 352.01172 L 327.23828 349.35938 L 327.15039 345.57422 L 327.30469 344.02148 L 327.64648 342.47852 L 327.64648 341.35156 L 326.53125 339.00781 L 325.83594 336.61133 L 325.73633 335.41602 L 325.95703 333.12109 L 325.95703 332.67578 L 323.30273 326.2793 L 321.95898 325.28711 L 320.95117 324.3418 L 320.58789 324.07812 L 320.23438 323.32617 L 318.32227 315.19141 L 317.30664 309.75391 L 311.0625 302.71484 L 305.09766 299.875 L 303.9707 298.72461 L 300.76562 297.45312 L 290.83398 290.98828 L 277.02148 294.21875 L 276.74023 294.14062 L 274.47461 294.60156 L 273.66211 292.38281 L 273.38867 292.14844 L 268.50391 278.79883 L 263.33398 278.79883 L 260.58203 278.00391 L 259.16797 278.00391 z M -482.46094 278.52734 L -483.10156 279.21094 L -481.82422 279.94141 L -480.73438 279.47656 L -481.07422 278.52734 L -482.46094 278.52734 z M -492.06055 279.12891 L -492.2207 279.14062 L -492.2207 279.36719 L -492.00195 279.78125 L -492.2207 279.94531 L -492.2207 280.00391 L -491.2832 280.00391 L -491.44727 279.38281 L -491.5957 279.47266 L -491.76758 279.46484 L -492.06055 279.12891 z M -459.65625 284.14062 L -459.89844 285.01172 L -459.39453 285.01172 L -459.33203 285.07422 L -459.33203 285.19531 L -459.18359 285.30859 L -458.71094 284.85938 L -458.71094 284.51172 L -458.87891 284.44141 L -459.36719 284.51953 L -459.65625 284.14062 z M -487.27734 284.92578 L -488.18359 285.07031 L -488.05078 285.81641 L -487.83984 285.81641 L -487.55859 285.375 L -486.80859 285.875 L -487.27734 284.92578 z M -436.80859 285.02734 L -436.95703 285.58984 L -437.10938 285.58984 L -437.28125 285.66406 L -436.94531 286.27344 L -436.53516 286.27344 L -436.53516 285.94141 L -436.42188 285.71094 L -436.01172 285.58203 L -436.80859 285.02734 z M -474.56641 288.11719 L -475.38281 288.52734 L -474.74219 288.78516 L -474.99609 289.625 L -474.16797 288.97266 L -474.56641 288.11719 z M -452.72266 292.35938 L -452.87109 292.48828 L -452.73438 293.05859 L -452.99219 293.2168 L -452.8457 293.29102 L -452.85156 293.34766 L -452 293.45703 L -452.07812 292.76953 L -452.30078 292.89453 L -452.72266 292.35938 z " /></g></svg>
